<svg width="52" height="60" viewBox="0 0 52 60" fill="none" xmlns="http://www.w3.org/2000/svg">
<path d="M0.953125 28.611V30.4114C0.953125 27.0044 3.71594 24.2416 7.12293 24.2416H15.8792C20.5382 24.2416 24.3152 20.4645 24.3152 15.8055V7.04923C24.3152 3.64224 27.0781 0.879424 30.4851 0.879424H28.6847C25.8873 0.879424 23.2052 1.99142 21.2264 3.96814L4.04184 21.1527C2.06512 23.1315 0.953125 25.8138 0.953125 28.611Z" stroke="black" stroke-width="1.6" stroke-miterlimit="10" stroke-linecap="round" stroke-linejoin="round"/>
<path d="M44.5654 34.5305L49.0464 30.0507H51.0473" stroke="black" stroke-width="1.6" stroke-miterlimit="10" stroke-linecap="round" stroke-linejoin="round"/>
<path d="M42.2197 32.1851L47.186 27.2187C47.4969 26.9079 47.9183 26.7334 48.3582 26.7334H51.0471" stroke="black" stroke-width="1.6" stroke-miterlimit="10" stroke-linecap="round" stroke-linejoin="round"/>
<path d="M41.351 32.0698C43.1904 32.0698 44.6814 33.5609 44.6814 35.4002C44.6814 37.2396 43.1904 38.7307 41.351 38.7307C39.5116 38.7307 38.0205 37.2396 38.0205 35.4002C38.0205 33.5609 39.5116 32.0698 41.351 32.0698Z" stroke="black" stroke-width="1.6" stroke-miterlimit="10" stroke-linecap="round" stroke-linejoin="round"/>
<path d="M51.0472 17.5366H44.0579C43.618 17.5366 43.1966 17.3621 42.8857 17.0512L37.9194 12.0849" stroke="black" stroke-width="1.6" stroke-miterlimit="10" stroke-linecap="round" stroke-linejoin="round"/>
<path d="M51.0473 14.219H44.746L40.2651 9.73915" stroke="black" stroke-width="1.6" stroke-miterlimit="10" stroke-linecap="round" stroke-linejoin="round"/>
<path d="M37.0507 12.2007C38.8901 12.2007 40.3812 10.7096 40.3812 8.87021C40.3812 7.03084 38.8901 5.53975 37.0507 5.53975C35.2113 5.53975 33.7202 7.03084 33.7202 8.87021C33.7202 10.7096 35.2113 12.2007 37.0507 12.2007Z" stroke="black" stroke-width="1.6" stroke-miterlimit="10" stroke-linecap="round" stroke-linejoin="round"/>
<path d="M37.2388 26.1902L39.636 23.793H51.0473" stroke="black" stroke-width="1.6" stroke-miterlimit="10" stroke-linecap="round" stroke-linejoin="round"/>
<path d="M51.0466 20.4761H45.9009" stroke="black" stroke-width="1.6" stroke-miterlimit="10" stroke-linecap="round" stroke-linejoin="round"/>
<path d="M34.8921 23.8442L37.7749 20.9614C38.0866 20.6497 38.5073 20.4763 38.9479 20.4763H42.3851" stroke="black" stroke-width="1.6" stroke-miterlimit="10" stroke-linecap="round" stroke-linejoin="round"/>
<path d="M34.0229 23.7292C35.8622 23.7292 37.3533 25.2203 37.3533 27.0597C37.3533 28.899 35.8622 30.3901 34.0229 30.3901C32.1835 30.3901 30.6924 28.899 30.6924 27.0597C30.6924 25.2203 32.1835 23.7292 34.0229 23.7292Z" stroke="black" stroke-width="1.6" stroke-miterlimit="10" stroke-linecap="round" stroke-linejoin="round"/>
<path d="M15.663 59.1211H42.6103C47.2696 59.1211 51.0466 55.3441 51.0466 50.6848V9.31524C51.0466 4.65587 47.2696 0.878914 42.6103 0.878914H28.6837C25.8876 0.878914 23.2052 1.98985 21.227 3.96797L4.0415 21.1523C2.06455 23.1305 0.953613 25.8129 0.953613 28.609V50.6848C0.953613 55.3441 4.73057 59.1211 9.38994 59.1211H12.1474" stroke="black" stroke-width="1.6" stroke-miterlimit="10" stroke-linecap="round" stroke-linejoin="round"/>
<path d="M7.71533 31.8962H24.909" stroke="black" stroke-width="1.6" stroke-miterlimit="10" stroke-linecap="round" stroke-linejoin="round"/>
<path d="M7.71533 36.4932H32.3642" stroke="black" stroke-width="1.6" stroke-miterlimit="10" stroke-linecap="round" stroke-linejoin="round"/>
<path d="M7.71533 41.0903H32.3642" stroke="black" stroke-width="1.6" stroke-miterlimit="10" stroke-linecap="round" stroke-linejoin="round"/>
<path d="M7.71533 45.6873H32.3642" stroke="black" stroke-width="1.6" stroke-miterlimit="10" stroke-linecap="round" stroke-linejoin="round"/>
<path d="M34.0229 51.769H43.017" stroke="black" stroke-width="1.6" stroke-miterlimit="10" stroke-linecap="round" stroke-linejoin="round"/>
</svg>
