<svg width="60" height="60" viewBox="0 0 60 60" fill="none" xmlns="http://www.w3.org/2000/svg">
<path d="M53.6602 18.3351H36.1406C36.1312 17.5136 36.0691 16.7027 35.9508 15.9222C35.8816 15.464 35.4879 15.1253 35.025 15.1253H33.2391C32.8676 13.5105 32.2336 11.9835 31.3477 10.5667L32.6109 9.30347C32.9391 8.97534 32.9777 8.45737 32.7023 8.08472C31.6582 6.67144 30.4137 5.4269 29.0016 4.38394C28.6289 4.10855 28.1109 4.14722 27.7828 4.47534L26.5207 5.73745C25.1086 4.85386 23.5793 4.2187 21.9586 3.84487V2.05894C21.9586 1.59487 21.6187 1.19995 21.1594 1.13198C19.4355 0.876514 17.6672 0.875342 15.9293 1.13198C15.4699 1.19995 15.1289 1.5937 15.1289 2.05894V3.84487C13.507 4.21987 11.9789 4.85386 10.5668 5.73745L9.30469 4.47534C8.97656 4.14722 8.45859 4.10855 8.08594 4.38394C6.68086 5.42222 5.43633 6.66675 4.38516 8.08355C4.10859 8.4562 4.14727 8.97534 4.47539 9.30347L5.73867 10.5667C4.8668 11.9671 4.22344 13.5187 3.84961 15.1253H2.0625C1.59844 15.1253 1.20352 15.4664 1.13555 15.9257C1.00781 16.7917 0.943359 17.6718 0.943359 18.5402C0.943359 19.4085 1.00781 20.2921 1.13672 21.1558C1.20469 21.6152 1.59961 21.955 2.06367 21.955H3.84961C4.22344 23.5781 4.85742 25.1062 5.73984 26.5171L4.47656 27.7804C4.14844 28.1085 4.10977 28.6277 4.38633 29.0003C5.4375 30.4171 6.68203 31.6628 8.08711 32.7011C8.35898 32.9027 8.70937 32.9355 9.00586 32.8113V53.6625C9.00586 56.639 11.4293 59.0601 14.407 59.0601H53.6648C56.6437 59.0601 59.066 56.639 59.066 53.6625V23.7363C59.066 20.7574 56.6426 18.3351 53.6648 18.3351H53.6602ZM35.9508 21.1605C35.9988 20.8488 36.034 20.53 36.0645 20.2089H53.6602C55.6055 20.2089 57.1875 21.791 57.1875 23.7363V29.0578H32.6566C32.6707 29.0378 32.6871 29.0191 32.7012 29.0003C32.9766 28.6277 32.9379 28.1097 32.6098 27.7816L31.3465 26.5183C32.2324 25.1015 32.8664 23.5722 33.2379 21.9562H35.0238C35.4867 21.9562 35.8805 21.6175 35.9496 21.1605H35.9508ZM8.56172 30.7007C7.76836 30.0492 7.03945 29.3191 6.38203 28.5199L7.60078 27.3023C7.92187 26.9812 7.96641 26.475 7.70625 26.1023C6.60117 24.5226 5.86875 22.7566 5.53242 20.8558C5.45273 20.4082 5.06484 20.0824 4.61016 20.0824H2.8875C2.83828 19.5691 2.8125 19.0535 2.8125 18.5414C2.8125 18.0293 2.83711 17.5136 2.8875 17.0003H4.61016C5.06484 17.0003 5.45273 16.6746 5.53242 16.2269C5.86406 14.3542 6.61641 12.5402 7.70625 10.9828C7.96641 10.6101 7.92187 10.105 7.60078 9.78394L6.38203 8.56636C7.03828 7.76714 7.76836 7.03823 8.56172 6.3855L9.78047 7.60425C10.1016 7.92534 10.6078 7.96987 10.9805 7.70972C12.5625 6.60112 14.3285 5.8687 16.227 5.53237C16.6746 5.45269 17.0004 5.0648 17.0004 4.61011V2.88745C18.0305 2.78784 19.0594 2.78784 20.0824 2.88745V4.61011C20.0824 5.0648 20.4082 5.45386 20.8559 5.53237C22.7543 5.8687 24.5203 6.60112 26.1023 7.70972C26.475 7.97105 26.9801 7.92651 27.3023 7.60425L28.5211 6.3855C29.318 7.03941 30.0469 7.76831 30.7008 8.56519L29.482 9.78394C29.1609 10.105 29.1164 10.6101 29.3766 10.9828C30.4875 12.5742 31.2188 14.3378 31.5504 16.2257C31.6289 16.6734 32.018 17.0003 32.4727 17.0003H34.1965C34.2457 17.5054 34.2703 18.021 34.2703 18.5414C34.2703 19.0617 34.2457 19.5796 34.1977 20.0824H32.4738C32.0191 20.0824 31.6301 20.4093 31.5516 20.857C31.2199 22.7472 30.4887 24.5121 29.3777 26.1035C29.1176 26.4761 29.1621 26.9812 29.4832 27.3023L30.702 28.521C30.048 29.3179 29.3191 30.0468 28.5223 30.7007L27.3035 29.482C26.9824 29.1609 26.4762 29.1164 26.1035 29.3765C24.5215 30.4851 22.7555 31.2175 20.857 31.5539C20.4094 31.6335 20.0836 32.0214 20.0836 32.4761V34.1988C19.0594 34.2984 18.0316 34.2984 17.0016 34.1988V32.4761C17.0016 32.0214 16.6758 31.6324 16.2281 31.5539C14.3297 31.2175 12.5637 30.4851 10.9816 29.3765C10.609 29.1152 10.1039 29.1597 9.78164 29.482L8.56289 30.7007H8.56172ZM53.6602 57.1875H14.4023C12.457 57.1875 10.875 55.6066 10.875 53.6625V31.5328C12.2004 32.3191 13.623 32.8933 15.1266 33.2402V35.0261C15.1266 35.4902 15.4676 35.8851 15.927 35.9531C16.7941 36.0808 17.6742 36.1464 18.5414 36.1464C19.4086 36.1464 20.2934 36.082 21.157 35.9531C21.6164 35.8851 21.9562 35.4902 21.9562 35.0261V33.2402C23.577 32.8652 25.1062 32.2312 26.5184 31.3476L27.7805 32.6097C28.1086 32.9378 28.6266 32.9765 28.9992 32.7011C29.727 32.1632 30.409 31.5714 31.0441 30.9316H57.1875V53.6625C57.1875 55.6054 55.6055 57.1875 53.6602 57.1875ZM28.4484 49.4871C28.275 49.7882 27.9598 49.9558 27.6363 49.9558C27.477 49.9558 27.3164 49.916 27.1687 49.8304L20.0531 45.7242C19.5059 45.4089 19.1789 44.8429 19.1789 44.2125C19.1789 43.582 19.5059 43.016 20.0531 42.6996L27.1676 38.591C27.6164 38.332 28.1883 38.4855 28.4473 38.9332C28.7062 39.3808 28.5527 39.9539 28.1051 40.2128L21.1805 44.2113L28.1039 48.2062C28.5516 48.4652 28.7051 49.0371 28.4473 49.4859L28.4484 49.4871ZM48.8836 44.2125C48.8836 44.8441 48.5566 45.4089 48.0094 45.7242L40.8937 49.8304C40.7461 49.916 40.5855 49.9558 40.4262 49.9558C40.1027 49.9558 39.7875 49.7882 39.6141 49.4871C39.3551 49.0394 39.5086 48.4664 39.9574 48.2074L46.8809 44.2125L39.9562 40.214C39.5086 39.955 39.3551 39.382 39.6141 38.9343C39.873 38.4867 40.4461 38.3332 40.8937 38.5921L48.0082 42.7007C48.5555 43.016 48.8824 43.582 48.8824 44.2136L48.8836 44.2125ZM37.3477 35.4527L32.5242 53.4574C32.4117 53.8757 32.0332 54.1523 31.6195 54.1523C31.5398 54.1523 31.4578 54.1418 31.377 54.1207C30.8777 53.9871 30.5801 53.4726 30.7148 52.9734L35.5383 34.9687C35.6719 34.4695 36.1863 34.1718 36.6855 34.3066C37.1848 34.4402 37.4824 34.9546 37.3477 35.4539V35.4527ZM36.8086 24.6339C36.8086 24.116 37.2281 23.6976 37.7449 23.6976H40.6312C41.1492 23.6976 41.5676 24.1171 41.5676 24.6339C41.5676 25.1507 41.148 25.5703 40.6312 25.5703H37.7449C37.227 25.5703 36.8086 25.1507 36.8086 24.6339ZM47.1258 24.6339C47.1258 24.116 47.5453 23.6976 48.0621 23.6976H50.9484C51.4664 23.6976 51.8848 24.1171 51.8848 24.6339C51.8848 25.1507 51.4652 25.5703 50.9484 25.5703H48.0621C47.5441 25.5703 47.1258 25.1507 47.1258 24.6339ZM18.5414 27.5472C23.5066 27.5472 27.5473 23.5078 27.5473 18.5414C27.5473 13.575 23.5078 9.53901 18.5414 9.53901C13.575 9.53901 9.53906 13.5773 9.53906 18.5414C9.53906 23.5054 13.5773 27.5472 18.5414 27.5472ZM18.5414 11.4128C22.4742 11.4128 25.6734 14.6109 25.6734 18.5414C25.6734 22.4718 22.4742 25.6734 18.5414 25.6734C14.6086 25.6734 11.4129 22.4742 11.4129 18.5414C11.4129 14.6085 14.6109 11.4128 18.5414 11.4128ZM14.7598 19.1332C14.3941 18.7675 14.3941 18.1734 14.7598 17.8078C15.1254 17.4421 15.7195 17.4433 16.0852 17.8078L17.5488 19.2738L21.0012 15.8214C21.3668 15.4558 21.9598 15.4558 22.3254 15.8214C22.691 16.1871 22.691 16.78 22.3254 17.1457L18.2098 21.2613C18.034 21.4371 17.7961 21.5355 17.5477 21.5355C17.2992 21.5355 17.0602 21.4371 16.8855 21.2601L14.7598 19.1308V19.1332Z" fill="black"/>
</svg>
