<svg width="64" height="90" viewBox="0 0 64 90" fill="none" xmlns="http://www.w3.org/2000/svg">
<path d="M62.1265 32.0725L49.6753 17.724L61.0853 1.38125C61.3677 0.984175 61.2706 0.437104 60.8735 0.154682C60.4677 -0.127739 59.9204 -0.0218802 59.6382 0.375385L48.4841 16.3475L44.1954 11.4059C44.0278 11.2117 43.7806 11.1059 43.5247 11.1059C43.2689 11.1059 43.0218 11.2117 42.8628 11.4059L24.9142 32.0725C23.9435 33.202 23.4052 34.6492 23.4052 36.1316V45.5648C22.3815 45.406 21.3315 45.3178 20.2638 45.3178C9.28623 45.3178 0.355957 54.2393 0.355957 65.2168C0.355957 76.1326 9.24209 85.1156 20.2638 85.1156C21.3315 85.1156 22.3815 85.0273 23.4052 84.8686V86.0246C23.4052 88.2219 25.1966 90.0043 27.3938 90.0043H59.6558C61.853 90.0043 63.6444 88.2219 63.6444 86.0246V36.1316C63.6442 34.6402 63.106 33.202 62.1265 32.0725ZM21.1462 47.1268C25.9731 47.3562 30.297 49.474 33.412 52.7656L30.9411 54.8922C28.4263 52.2979 24.9759 50.6213 21.146 50.3918L21.1462 47.1268ZM32.0796 56.2336L34.5681 54.1068C37.4272 57.7867 38.786 62.3842 38.3007 67.0963L35.0622 66.6021C35.4151 62.7723 34.3032 59.1455 32.0796 56.2336ZM19.3813 47.1268V50.3918C12.6483 50.7889 7.11553 55.6687 5.72998 62.093L2.4915 61.59C4.11514 53.6039 11.0157 47.5328 19.3813 47.1268ZM5.95947 76.3266C3.10029 72.6645 1.73271 68.067 2.22685 63.3371L5.46533 63.8312C5.1124 67.6611 6.22412 71.2791 8.43916 74.1998L5.95947 76.3266ZM19.3813 83.3066C14.5544 83.0771 10.2216 80.9594 7.10654 77.6678L9.58623 75.5412C12.1013 78.1355 15.5427 79.8121 19.3813 80.0416V83.3066ZM20.2726 73.3264C20.2726 73.8117 19.8755 74.2088 19.3901 74.2088C18.9048 74.2088 18.5077 73.8117 18.5077 73.3264V72.541H17.7487V73.3264C17.7487 73.8117 17.3517 74.2088 16.8663 74.2088C16.381 74.2088 15.9839 73.8117 15.9839 73.3264V72.541H15.3485C14.8632 72.541 14.4661 72.1527 14.4661 71.6586C14.4661 71.1732 14.8632 70.7762 15.3485 70.7762H15.9839V59.6486H15.3485C14.8632 59.6486 14.4661 59.2603 14.4661 58.7662C14.4661 58.2809 14.8632 57.8838 15.3485 57.8838H15.9839V57.1072C15.9839 56.6131 16.381 56.2248 16.8663 56.2248C17.3517 56.2248 17.7487 56.6131 17.7487 57.1072V57.8838H18.5077V57.1072C18.5077 56.6131 18.9048 56.2248 19.3901 56.2248C19.8755 56.2248 20.2726 56.6131 20.2726 57.1072V57.8838H21.3667C23.9522 57.8838 26.0524 59.7281 26.0524 61.9959C26.0524 63.302 25.3376 64.4668 24.2347 65.2168C25.3378 65.9668 26.0524 67.1228 26.0524 68.4377C26.0524 70.7055 23.9522 72.541 21.3667 72.541H20.2726V73.3264ZM21.1462 83.3066V80.0416C27.8704 79.6445 33.412 74.7646 34.7888 68.3404L38.036 68.8434C36.4034 76.8295 29.5116 82.9008 21.1462 83.3066ZM61.8794 86.0246C61.8794 87.2424 60.8823 88.2394 59.6558 88.2394H27.3938C26.1673 88.2394 25.17 87.2424 25.17 86.0246V84.5068C33.7825 82.3096 40.1626 74.4912 40.1626 65.2168C40.1626 56.0395 33.862 48.1416 25.17 45.9268V36.1316C25.17 35.0639 25.5583 34.0314 26.2466 33.2285L43.5247 13.3297L47.4427 17.8389L44.7776 21.6598C44.3718 21.5539 43.9569 21.501 43.5245 21.501C40.7007 21.501 38.3976 23.7953 38.3976 26.6191C38.3976 29.4518 40.7007 31.7461 43.5245 31.7461C46.3483 31.7461 48.6515 29.4518 48.6515 26.6191C48.6515 24.8719 47.7603 23.3187 46.4101 22.3922L48.6337 19.2154L60.7937 33.2285C61.4907 34.0314 61.879 35.0641 61.879 36.1316V86.0246H61.8794ZM41.8833 27.3426C42.2804 27.625 42.8274 27.5279 43.1099 27.1307L45.4042 23.8393C46.2954 24.448 46.8866 25.4629 46.8866 26.6189C46.8866 28.4721 45.3776 29.981 43.5245 29.981C41.6714 29.981 40.1624 28.4721 40.1624 26.6189C40.1624 24.7924 41.6626 23.2039 43.6479 23.2744L41.6624 26.1158C41.3804 26.5131 41.4774 27.0689 41.8833 27.3426Z" fill="black"/>
<path d="M56.1026 45.6375H43.5235C43.0358 45.6375 42.6411 46.0322 42.6411 46.5199C42.6411 47.0076 43.0358 47.4023 43.5235 47.4023H56.1026C56.5903 47.4023 56.9851 47.0076 56.9851 46.5199C56.9851 46.0322 56.5903 45.6375 56.1026 45.6375Z" fill="black"/>
<path d="M56.1026 52.4246H43.5235C43.0358 52.4246 42.6411 52.8193 42.6411 53.307C42.6411 53.7947 43.0358 54.1894 43.5235 54.1894H56.1026C56.5903 54.1894 56.9851 53.7947 56.9851 53.307C56.9851 52.8193 56.5903 52.4246 56.1026 52.4246Z" fill="black"/>
<path d="M56.1026 59.2126H43.5235C43.0358 59.2126 42.6411 59.6074 42.6411 60.0951C42.6411 60.5828 43.0358 60.9775 43.5235 60.9775H56.1026C56.5903 60.9775 56.9851 60.5828 56.9851 60.0951C56.9851 59.6074 56.5903 59.2126 56.1026 59.2126Z" fill="black"/>
<path d="M56.1026 66.0007H43.5235C43.0358 66.0007 42.6411 66.3955 42.6411 66.8832C42.6411 67.3709 43.0358 67.7656 43.5235 67.7656H56.1026C56.5903 67.7656 56.9851 67.3709 56.9851 66.8832C56.9851 66.3955 56.5903 66.0007 56.1026 66.0007Z" fill="black"/>
<path d="M56.1026 72.7888H43.5235C43.0358 72.7888 42.6411 73.1835 42.6411 73.6712C42.6411 74.1589 43.0358 74.5537 43.5235 74.5537H56.1026C56.5903 74.5537 56.9851 74.1589 56.9851 73.6712C56.9851 73.1834 56.5903 72.7888 56.1026 72.7888Z" fill="black"/>
<path d="M56.1026 79.5767H43.5235C43.0358 79.5767 42.6411 79.9714 42.6411 80.4591C42.6411 80.9468 43.0358 81.3415 43.5235 81.3415H56.1026C56.5903 81.3415 56.9851 80.9468 56.9851 80.4591C56.9851 79.9714 56.5903 79.5767 56.1026 79.5767Z" fill="black"/>
<path d="M24.2874 68.4376C24.2874 69.7347 22.9813 70.7761 21.3665 70.7761H17.7485V66.0991H21.3665C22.9813 66.0991 24.2874 67.1491 24.2874 68.4376Z" fill="black"/>
<path d="M24.2874 61.9959C24.2874 63.2842 22.9813 64.3344 21.3665 64.3344H17.7485V59.6487H21.3665C22.9813 59.6487 24.2874 60.6987 24.2874 61.9959Z" fill="black"/>
</svg>
