<svg width="60" height="60" viewBox="0 0 60 60" fill="none" xmlns="http://www.w3.org/2000/svg">
<path d="M28.125 5.625H31.875C32.3934 5.625 32.8125 5.20594 32.8125 4.6875C32.8125 4.16906 32.3934 3.75 31.875 3.75H28.125C27.6066 3.75 27.1875 4.16906 27.1875 4.6875C27.1875 5.20594 27.6066 5.625 28.125 5.625Z" fill="black"/>
<path d="M35.625 50.625H24.375C23.8566 50.625 23.4375 51.0441 23.4375 51.5625C23.4375 52.0809 23.8566 52.5 24.375 52.5H35.625C36.1434 52.5 36.5625 52.0809 36.5625 51.5625C36.5625 51.0441 36.1434 50.625 35.625 50.625Z" fill="black"/>
<path d="M29.1806 38.8922C29.3456 39.1903 29.6597 39.375 30 39.375C30.3403 39.375 30.6544 39.1903 30.8194 38.8922L35.5069 30.4547C35.6644 30.1716 35.6644 29.8275 35.5069 29.5444L30.8194 21.1069C30.4894 20.5116 29.5106 20.5116 29.1806 21.1069L24.4931 29.5444C24.3356 29.8275 24.3356 30.1716 24.4931 30.4547L29.1806 38.8922ZM30.9375 31.7063L32.8838 31.3172L30.9375 34.8197V31.7063ZM30.9375 29.7938V25.1803L33.2447 29.3325L30.9375 29.7938ZM29.0625 29.7938L26.7553 29.3325L29.0625 25.1803V29.7938ZM29.0625 31.7063V34.8197L27.1163 31.3172L29.0625 31.7063Z" fill="black"/>
<path d="M53.4371 12.1875C53.9555 12.1875 54.3746 11.7684 54.3746 11.25V6.95062L55.9833 5.34188C56.3639 5.52281 56.7736 5.62313 57.1871 5.62313C57.908 5.62313 58.6271 5.34937 59.1755 4.80094C60.2724 3.70406 60.2724 1.92094 59.1755 0.824063C58.0786 -0.272812 56.2955 -0.272812 55.1986 0.824063C54.3352 1.6875 54.1618 2.97187 54.6577 4.01625L52.7743 5.89969C52.598 6.075 52.4996 6.31313 52.4996 6.5625V10.3125H47.8121V4.6875C47.8121 2.10281 45.7093 0 43.1246 0H16.8746C14.2899 0 12.1871 2.10281 12.1871 4.6875V10.3125H7.49957V6.5625C7.49957 6.31313 7.40113 6.075 7.22488 5.89969L5.34144 4.01625C5.83738 2.97187 5.66395 1.6875 4.80051 0.824063C3.70363 -0.272812 1.92051 -0.272812 0.823633 0.824063C-0.273242 1.92094 -0.273242 3.70406 0.823633 4.80094C1.37207 5.34937 2.09113 5.62313 2.81207 5.62313C3.22551 5.62313 3.6352 5.52187 4.01582 5.34188L5.62457 6.95062V11.25C5.62457 11.7684 6.04363 12.1875 6.56207 12.1875H12.1871V17.4244L10.0374 15.2747C9.86207 15.0984 9.62395 15 9.37457 15H7.32801C7.19301 14.6166 6.98113 14.2547 6.67551 13.9491C5.57863 12.8522 3.79551 12.8522 2.69863 13.9491C1.60176 15.0459 1.60176 16.8291 2.69863 17.9259C3.24707 18.4744 3.96613 18.7481 4.68707 18.7481C5.40801 18.7481 6.12707 18.4744 6.67551 17.9259C6.98207 17.6203 7.19301 17.2584 7.32801 16.875H8.98551L12.1871 20.0756V24.9244L10.0374 22.7747C9.86207 22.5984 9.62395 22.5 9.37457 22.5H5.45301C5.31801 22.1166 5.10613 21.7547 4.80051 21.4491C3.70363 20.3522 1.92051 20.3522 0.823633 21.4491C-0.273242 22.5459 -0.273242 24.3291 0.823633 25.4259C1.37207 25.9744 2.09113 26.2481 2.81207 26.2481C3.53301 26.2481 4.25207 25.9744 4.80051 25.4259C5.10707 25.1203 5.31801 24.7584 5.45301 24.375H8.98551L12.1871 27.5756V32.4244L8.98645 35.625H5.45301C5.31801 35.2416 5.10613 34.8797 4.80051 34.5741C3.70363 33.4772 1.92051 33.4772 0.823633 34.5741C-0.273242 35.6709 -0.273242 37.4541 0.823633 38.5509C1.37207 39.0994 2.09113 39.3731 2.81207 39.3731C3.53301 39.3731 4.25207 39.0994 4.80051 38.5509C5.10707 38.2453 5.31801 37.8834 5.45301 37.5H9.37457C9.62395 37.5 9.86207 37.4016 10.0374 37.2253L12.1871 35.0756V39.9244L8.98645 43.125H7.32801C7.19301 42.7416 6.98113 42.3797 6.67551 42.0741C5.57863 40.9772 3.79551 40.9772 2.69863 42.0741C1.60176 43.1709 1.60176 44.9541 2.69863 46.0509C3.24707 46.5994 3.96613 46.8731 4.68707 46.8731C5.40801 46.8731 6.12707 46.5994 6.67551 46.0509C6.98207 45.7453 7.19301 45.3834 7.32801 45H9.37457C9.62395 45 9.86207 44.9016 10.0374 44.7253L12.1871 42.5756V47.8125H6.56207C6.04363 47.8125 5.62457 48.2316 5.62457 48.75V53.0494L4.01582 54.6581C2.97145 54.1622 1.68707 54.3356 0.823633 55.1991C-0.273242 56.2959 -0.273242 58.0791 0.823633 59.1759C1.37207 59.7244 2.09113 59.9981 2.81207 59.9981C3.53301 59.9981 4.25207 59.7244 4.80051 59.1759C5.66395 58.3125 5.83645 57.0281 5.34144 55.9837L7.22488 54.1003C7.40113 53.925 7.49957 53.6869 7.49957 53.4375V49.6875H12.1871V55.3125C12.1871 57.8972 14.2899 60 16.8746 60H43.1246C45.7093 60 47.8121 57.8972 47.8121 55.3125V49.6875H52.4996V53.4375C52.4996 53.6869 52.598 53.925 52.7743 54.1003L54.6577 55.9837C54.1618 57.0281 54.3352 58.3125 55.1986 59.1759C55.7471 59.7244 56.4671 59.9981 57.1871 59.9981C57.9071 59.9981 58.6271 59.7244 59.1755 59.1759C60.2724 58.0791 60.2724 56.2959 59.1755 55.1991C58.3121 54.3356 57.0277 54.1631 55.9833 54.6581L54.3746 53.0494V48.75C54.3746 48.2316 53.9555 47.8125 53.4371 47.8125H47.8121V42.5747L49.9627 44.7253C50.138 44.9016 50.3761 45 50.6255 45H52.6711C52.8061 45.3834 53.018 45.7453 53.3236 46.0509C53.8721 46.5994 54.5921 46.8731 55.3121 46.8731C56.0321 46.8731 56.7521 46.5994 57.3005 46.0509C58.3974 44.9541 58.3974 43.1709 57.3005 42.0741C56.2036 40.9772 54.4205 40.9772 53.3236 42.0741C53.018 42.3797 52.8061 42.7416 52.6711 43.125H51.0136L47.8121 39.9234V35.0756L49.9618 37.2253C50.1371 37.4016 50.3752 37.5 50.6246 37.5H54.5461C54.6811 37.8834 54.893 38.2453 55.1986 38.5509C55.7471 39.0994 56.4671 39.3731 57.1871 39.3731C57.9071 39.3731 58.6271 39.0994 59.1755 38.5509C60.2724 37.4541 60.2724 35.6709 59.1755 34.5741C58.0786 33.4772 56.2955 33.4772 55.1986 34.5741C54.893 34.8797 54.6811 35.2416 54.5461 35.625H51.0127L47.8121 32.4244V27.5756L51.0127 24.375H54.5461C54.6811 24.7584 54.893 25.1203 55.1986 25.4259C55.7471 25.9744 56.4671 26.2481 57.1871 26.2481C57.9071 26.2481 58.6271 25.9744 59.1755 25.4259C60.2724 24.3291 60.2724 22.5459 59.1755 21.4491C58.0786 20.3522 56.2955 20.3522 55.1986 21.4491C54.893 21.7547 54.6811 22.1166 54.5461 22.5H50.6246C50.3752 22.5 50.1371 22.5984 49.9618 22.7747L47.8121 24.9244V20.0756L51.0127 16.875H52.6711C52.8061 17.2584 53.018 17.6203 53.3236 17.9259C53.8721 18.4744 54.5921 18.7481 55.3121 18.7481C56.0321 18.7481 56.7521 18.4744 57.3005 17.9259C58.3974 16.8291 58.3974 15.0459 57.3005 13.9491C56.2036 12.8522 54.4205 12.8522 53.3236 13.9491C53.018 14.2547 52.8061 14.6166 52.6711 15H50.6246C50.3752 15 50.1371 15.0984 49.9618 15.2747L47.8121 17.4244V12.1875H53.4371ZM56.5243 2.14969C56.7071 1.96687 56.9471 1.87594 57.1871 1.87594C57.4271 1.87594 57.6671 1.96687 57.8499 2.14969C58.2155 2.51531 58.2155 3.10969 57.8499 3.47531C57.4833 3.84188 56.8908 3.84188 56.5243 3.47531C56.1586 3.10969 56.1586 2.51531 56.5243 2.14969ZM2.14926 3.47531C1.78363 3.10969 1.78363 2.51531 2.14926 2.14969C2.33207 1.96687 2.57207 1.87594 2.81207 1.87594C3.05207 1.87594 3.29207 1.96687 3.47488 2.14969C3.84051 2.51531 3.84051 3.10969 3.47488 3.47531C3.10832 3.84188 2.51582 3.84188 2.14926 3.47531ZM5.34988 16.6003C4.98332 16.9669 4.39082 16.9669 4.02426 16.6003C3.65863 16.2347 3.65863 15.6403 4.02426 15.2747C4.20707 15.0919 4.44707 15.0009 4.68707 15.0009C4.92707 15.0009 5.16707 15.0919 5.34988 15.2747C5.71551 15.6403 5.71551 16.2347 5.34988 16.6003ZM3.47488 24.1003C3.10832 24.4669 2.51582 24.4669 2.14926 24.1003C1.78363 23.7347 1.78363 23.1403 2.14926 22.7747C2.33207 22.5919 2.57207 22.5009 2.81207 22.5009C3.05207 22.5009 3.29207 22.5919 3.47488 22.7747C3.84051 23.1403 3.84051 23.7347 3.47488 24.1003ZM3.47488 37.2253C3.10832 37.5919 2.51582 37.5919 2.14926 37.2253C1.78363 36.8597 1.78363 36.2653 2.14926 35.8997C2.33207 35.7169 2.57207 35.6259 2.81207 35.6259C3.05207 35.6259 3.29207 35.7169 3.47488 35.8997C3.84051 36.2653 3.84051 36.8597 3.47488 37.2253ZM5.34988 44.7253C4.98332 45.0919 4.39082 45.0919 4.02426 44.7253C3.65863 44.3597 3.65863 43.7653 4.02426 43.3997C4.20707 43.2169 4.44707 43.1259 4.68707 43.1259C4.92707 43.1259 5.16707 43.2169 5.34988 43.3997C5.71551 43.7653 5.71551 44.3597 5.34988 44.7253ZM3.47488 57.8503C3.10832 58.2169 2.51582 58.2169 2.14926 57.8503C1.78363 57.4847 1.78363 56.8903 2.14926 56.5247C2.33207 56.3419 2.57207 56.2509 2.81207 56.2509C3.05207 56.2509 3.29207 56.3419 3.47488 56.5247C3.84051 56.8903 3.84051 57.4847 3.47488 57.8503ZM57.8499 56.5247C58.2155 56.8903 58.2155 57.4847 57.8499 57.8503C57.4833 58.2169 56.8908 58.2169 56.5243 57.8503C56.1586 57.4847 56.1586 56.8903 56.5243 56.5247C56.7071 56.3419 56.9471 56.2509 57.1871 56.2509C57.4271 56.2509 57.6671 56.3419 57.8499 56.5247ZM54.6493 43.3997C54.8321 43.2169 55.0721 43.1259 55.3121 43.1259C55.5521 43.1259 55.7921 43.2169 55.9749 43.3997C56.3405 43.7653 56.3405 44.3597 55.9749 44.7253C55.6083 45.0919 55.0158 45.0919 54.6493 44.7253C54.2836 44.3597 54.2836 43.7653 54.6493 43.3997ZM56.5243 35.8997C56.7071 35.7169 56.9471 35.6259 57.1871 35.6259C57.4271 35.6259 57.6671 35.7169 57.8499 35.8997C58.2155 36.2653 58.2155 36.8597 57.8499 37.2253C57.4833 37.5919 56.8908 37.5919 56.5243 37.2253C56.1586 36.8597 56.1586 36.2653 56.5243 35.8997ZM56.5243 22.7747C56.7071 22.5919 56.9471 22.5009 57.1871 22.5009C57.4271 22.5009 57.6671 22.5919 57.8499 22.7747C58.2155 23.1403 58.2155 23.7347 57.8499 24.1003C57.4833 24.4669 56.8908 24.4669 56.5243 24.1003C56.1586 23.7347 56.1586 23.1403 56.5243 22.7747ZM54.6493 15.2747C54.8321 15.0919 55.0721 15.0009 55.3121 15.0009C55.5521 15.0009 55.7921 15.0919 55.9749 15.2747C56.3405 15.6403 56.3405 16.2347 55.9749 16.6003C55.6083 16.9669 55.0158 16.9669 54.6493 16.6003C54.2836 16.2347 54.2836 15.6403 54.6493 15.2747ZM16.8746 1.875H43.1246C44.6752 1.875 45.9371 3.13687 45.9371 4.6875V51.1744L42.7364 54.375H17.2627L14.0621 51.1744V4.6875C14.0621 3.13687 15.3239 1.875 16.8746 1.875ZM43.1246 58.125H16.8746C15.3239 58.125 14.0621 56.8631 14.0621 55.3125V53.8256L16.2118 55.9753C16.3871 56.1516 16.6252 56.25 16.8746 56.25H43.1246C43.3739 56.25 43.6121 56.1516 43.7874 55.9753L45.9371 53.8256V55.3125C45.9371 56.8631 44.6752 58.125 43.1246 58.125Z" fill="black"/>
<path d="M30 43.125C37.2375 43.125 43.125 37.2375 43.125 30C43.125 22.7625 37.2375 16.875 30 16.875C22.7625 16.875 16.875 22.7625 16.875 30C16.875 37.2375 22.7625 43.125 30 43.125ZM30 18.75C36.2034 18.75 41.25 23.7966 41.25 30C41.25 36.2034 36.2034 41.25 30 41.25C23.7966 41.25 18.75 36.2034 18.75 30C18.75 23.7966 23.7966 18.75 30 18.75Z" fill="black"/>
</svg>
