<svg width="58" height="58" viewBox="0 0 58 58" fill="none" xmlns="http://www.w3.org/2000/svg">
<path d="M31.8125 6.5H26.1875C25.67 6.5 25.25 6.08 25.25 5.5625C25.25 5.045 25.67 4.625 26.1875 4.625H31.8125C32.33 4.625 32.75 5.045 32.75 5.5625C32.75 6.08 32.33 6.5 31.8125 6.5Z" fill="black"/>
<path d="M39.3125 57.125H18.6875C16.1019 57.125 14 55.0213 14 52.4375V20.5625C14 20.045 14.42 19.625 14.9375 19.625C15.455 19.625 15.875 20.045 15.875 20.5625V52.4375C15.875 53.9881 17.1369 55.25 18.6875 55.25H39.3125C40.8631 55.25 42.125 53.9881 42.125 52.4375V20.5625C42.125 20.045 42.545 19.625 43.0625 19.625C43.58 19.625 44 20.045 44 20.5625V52.4375C44 55.0213 41.8981 57.125 39.3125 57.125Z" fill="black"/>
<path d="M43.0625 27.125C42.545 27.125 42.125 26.705 42.125 26.1875V5.5625C42.125 4.01187 40.8631 2.75 39.3125 2.75H18.6875C17.1369 2.75 15.875 4.01187 15.875 5.5625V26.1875C15.875 26.705 15.455 27.125 14.9375 27.125C14.42 27.125 14 26.705 14 26.1875V5.5625C14 2.97875 16.1019 0.875 18.6875 0.875H39.3125C41.8981 0.875 44 2.97875 44 5.5625V26.1875C44 26.705 43.58 27.125 43.0625 27.125Z" fill="black"/>
<path d="M48.6875 10.3438C48.17 10.3438 47.75 10.0175 47.75 9.5V9.3125C47.75 8.795 48.17 8.375 48.6875 8.375C49.205 8.375 49.625 8.795 49.625 9.3125C49.625 9.83 49.205 10.3438 48.6875 10.3438Z" fill="black"/>
<path d="M48.6875 14.0938C48.17 14.0938 47.75 13.7675 47.75 13.25V13.0625C47.75 12.545 48.17 12.125 48.6875 12.125C49.205 12.125 49.625 12.545 49.625 13.0625C49.625 13.58 49.205 14.0938 48.6875 14.0938Z" fill="black"/>
<path d="M48.6875 17.8438C48.17 17.8438 47.75 17.5175 47.75 17V16.8125C47.75 16.295 48.17 15.875 48.6875 15.875C49.205 15.875 49.625 16.295 49.625 16.8125C49.625 17.33 49.205 17.8438 48.6875 17.8438Z" fill="black"/>
<path d="M9.3125 42.0313C8.795 42.0313 8.375 41.705 8.375 41.1875V41C8.375 40.4825 8.795 40.0625 9.3125 40.0625C9.83 40.0625 10.25 40.4825 10.25 41C10.25 41.5175 9.83 42.0313 9.3125 42.0313Z" fill="black"/>
<path d="M9.3125 45.7813C8.795 45.7813 8.375 45.455 8.375 44.9375V44.75C8.375 44.2325 8.795 43.8125 9.3125 43.8125C9.83 43.8125 10.25 44.2325 10.25 44.75C10.25 45.2675 9.83 45.7813 9.3125 45.7813Z" fill="black"/>
<path d="M9.3125 49.5313C8.795 49.5313 8.375 49.205 8.375 48.6875V48.5C8.375 47.9825 8.795 47.5625 9.3125 47.5625C9.83 47.5625 10.25 47.9825 10.25 48.5C10.25 49.0175 9.83 49.5313 9.3125 49.5313Z" fill="black"/>
<path d="M45.5769 49.625C45.5112 49.625 45.4438 49.6194 45.3781 49.6044C44.8719 49.4956 44.5512 48.9969 44.66 48.4906L45.2787 45.6219C45.3537 45.2694 45.6256 44.9938 45.9744 44.9094C46.8594 44.6956 47.7219 44.3356 48.5375 43.8387C48.8394 43.6512 49.2275 43.6569 49.5294 43.8481L51.3856 45.035L52.535 43.8762L51.3481 42.035C51.1531 41.7331 51.1494 41.345 51.335 41.0394C51.8319 40.2237 52.1919 39.3613 52.4038 38.4763C52.4881 38.1275 52.7619 37.8575 53.1125 37.7787L55.25 37.3044V35.6975L53.1144 35.2231C52.7638 35.1444 52.49 34.8744 52.4056 34.5256C52.1937 33.6406 51.8319 32.7781 51.3369 31.9625C51.1494 31.6569 51.1531 31.2706 51.3481 30.9687L52.5369 29.1106L51.3894 27.9631L49.5313 29.1519C49.2294 29.345 48.8431 29.3488 48.5394 29.1613C47.7219 28.6644 46.8594 28.3044 45.9763 28.0906C45.6256 28.0063 45.3556 27.7288 45.2806 27.3781L44.8194 25.25H44C43.4825 25.25 43.0625 24.83 43.0625 24.3125C43.0625 23.795 43.4825 23.375 44 23.375H45.575C46.0156 23.375 46.3981 23.6844 46.49 24.1156L46.9906 26.4275C47.6769 26.6356 48.35 26.9169 48.9988 27.2675L51.0125 25.9794C51.3837 25.7431 51.8675 25.7956 52.1806 26.1069L54.395 28.3194C54.7063 28.6306 54.7587 29.1163 54.5206 29.4875L53.2325 31.5012C53.5831 32.1519 53.8644 32.825 54.0725 33.5131L56.3881 34.0269C56.8194 34.1225 57.125 34.505 57.125 34.9438V38.0562C57.125 38.495 56.8194 38.8775 56.39 38.9713L54.0744 39.485C53.8662 40.1731 53.585 40.8462 53.2344 41.495L54.5206 43.49C54.7606 43.8594 54.71 44.3469 54.3987 44.6581L52.1844 46.8894C51.8712 47.2025 51.3856 47.255 51.0144 47.0188L49.0006 45.7306C48.35 46.0813 47.6788 46.3625 46.9925 46.5706L46.4919 48.8825C46.3963 49.325 46.0062 49.625 45.5769 49.625Z" fill="black"/>
<path d="M46.6083 41.3337C46.3083 41.3337 46.0121 41.1875 45.8302 40.9194C45.5414 40.49 45.6558 39.9069 46.0871 39.6181C47.1277 38.9169 47.7502 37.7506 47.7502 36.5C47.7502 34.4319 46.0683 32.75 44.0002 32.75C43.7452 32.75 43.4921 32.7763 43.2502 32.825C42.7477 32.9263 42.2471 32.6037 42.1421 32.0937C42.039 31.5856 42.3652 31.0906 42.8733 30.9875C43.2408 30.9144 43.6196 30.875 44.0002 30.875C47.1014 30.875 49.6252 33.3987 49.6252 36.5C49.6252 38.3769 48.6933 40.1244 47.1296 41.1744C46.9702 41.2812 46.7883 41.3337 46.6083 41.3337Z" fill="black"/>
<path d="M14 27.1249C10.8987 27.1249 8.375 24.6012 8.375 21.4999C8.375 19.6155 9.3125 17.8662 10.8837 16.8162C11.3094 16.5312 11.8944 16.6437 12.1831 17.0768C12.47 17.5062 12.3538 18.0893 11.9225 18.3762C10.8763 19.0774 10.25 20.2437 10.25 21.4999C10.25 23.568 11.9319 25.2499 14 25.2499C14.2512 25.2499 14.4988 25.2255 14.735 25.1768C15.2319 25.0737 15.7362 25.4018 15.8394 25.9118C15.9425 26.4199 15.6125 26.913 15.1044 27.0143C14.7462 27.0874 14.3787 27.1249 14 27.1249Z" fill="black"/>
<path d="M14 34.6249H12.425C11.9844 34.6249 11.6019 34.3155 11.51 33.8843L11.0094 31.5724C10.3231 31.3643 9.65 31.083 9.00125 30.7324L6.9875 32.0205C6.61438 32.2568 6.1325 32.2061 5.81938 31.893L3.605 29.6805C3.29375 29.3693 3.24125 28.8836 3.47937 28.5124L4.7675 26.4986C4.41687 25.848 4.13563 25.1749 3.9275 24.4868L1.61187 23.973C1.18062 23.8774 0.875 23.4949 0.875 23.0561V19.9436C0.875 19.5049 1.18062 19.1224 1.61 19.0286L3.92563 18.5149C4.13375 17.8268 4.415 17.1536 4.76562 16.5049L3.48125 14.508C3.24125 14.1386 3.29187 13.6511 3.60312 13.3399L5.8175 11.1086C6.12687 10.7936 6.61438 10.7411 6.9875 10.9793L9.00125 12.2674C9.65188 11.9168 10.3231 11.6355 11.0094 11.4274L11.51 9.11552C11.6187 8.60739 12.1269 8.28489 12.6237 8.39739C13.13 8.50614 13.4506 9.00489 13.3419 9.51114L12.7231 12.3799C12.6481 12.7324 12.3763 13.008 12.0275 13.0924C11.1425 13.3061 10.28 13.6661 9.4625 14.163C9.15875 14.3505 8.7725 14.3449 8.47063 14.1536L6.61437 12.9668L5.46313 14.1255L6.65 15.9668C6.84687 16.2686 6.85063 16.6568 6.66313 16.9624C6.16625 17.778 5.80625 18.6405 5.59438 19.5255C5.51 19.8743 5.23625 20.1443 4.88562 20.223L2.75 20.6955V22.3024L4.88562 22.7768C5.23625 22.8555 5.51 23.1255 5.59438 23.4743C5.80625 24.3593 6.16812 25.2218 6.66313 26.0374C6.85063 26.343 6.84687 26.7293 6.65187 27.0311L5.46313 28.8874L6.61063 30.0349L8.46875 28.8461C8.77063 28.6549 9.15875 28.6511 9.46062 28.8368C10.2781 29.3336 11.1406 29.6936 12.0238 29.9074C12.3744 29.9918 12.6444 30.2693 12.7194 30.6199L13.1806 32.7499H14C14.5175 32.7499 14.9375 33.1699 14.9375 33.6874C14.9375 34.2049 14.5175 34.6249 14 34.6249Z" fill="black"/>
<path d="M28.0627 33.6875C27.9877 33.6875 27.9127 33.6781 27.8358 33.6593C27.3315 33.5337 27.0277 33.0256 27.1533 32.5231L29.0283 25.0231C29.1521 24.5187 29.6527 24.215 30.1646 24.3406C30.669 24.4662 30.9727 24.9743 30.8471 25.4768L28.9721 32.9768C28.8671 33.4043 28.4846 33.6875 28.0627 33.6875Z" fill="black"/>
<path d="M33.688 33.6876C33.448 33.6876 33.208 33.5957 33.0242 33.4138C32.6586 33.0482 32.6586 32.4538 33.0242 32.0882L36.1123 29.0001L33.0261 25.9138C32.6605 25.5482 32.6605 24.9538 33.0261 24.5882C33.3917 24.2226 33.9861 24.2226 34.3517 24.5882L38.1017 28.3382C38.4673 28.7038 38.4673 29.2982 38.1017 29.6638L34.3517 33.4138C34.168 33.5957 33.928 33.6876 33.688 33.6876Z" fill="black"/>
<path d="M24.313 33.6876C24.073 33.6876 23.833 33.5957 23.6492 33.4138L19.8992 29.6638C19.5336 29.2982 19.5336 28.7038 19.8992 28.3382L23.6492 24.5882C24.0148 24.2226 24.6092 24.2226 24.9748 24.5882C25.3405 24.9538 25.3405 25.5482 24.9748 25.9138L21.8886 29.0001L24.9748 32.0863C25.3405 32.4519 25.3405 33.0463 24.9748 33.4119C24.793 33.5957 24.553 33.6876 24.313 33.6876Z" fill="black"/>
</svg>
