<svg width="26" height="26" viewBox="0 0 26 26" fill="none" xmlns="http://www.w3.org/2000/svg">
<path d="M19.25 2.17511C21.1353 3.26368 22.7037 4.82577 23.7998 6.70674C24.8959 8.5877 25.4817 10.7223 25.4993 12.8993C25.5169 15.0762 24.9656 17.2201 23.9 19.1185C22.8345 21.0169 21.2916 22.6041 19.4241 23.723C17.5566 24.8419 15.4292 25.4536 13.2526 25.4977C11.076 25.5417 8.92569 25.0166 7.01444 23.9742C5.1032 22.9318 3.49734 21.4083 2.35583 19.5545C1.21433 17.7007 0.576762 15.581 0.50625 13.4051L0.5 13.0001L0.50625 12.5951C0.576254 10.4363 1.20443 8.33256 2.32955 6.48885C3.45466 4.64514 5.03832 3.12442 6.92612 2.07496C8.81391 1.0255 10.9414 0.483106 13.1013 0.500657C15.2611 0.518208 17.3795 1.09511 19.25 2.17511ZM17.6337 9.61636C17.4185 9.40114 17.1321 9.27185 16.8284 9.25275C16.5246 9.23365 16.2243 9.32605 15.9838 9.51261L15.8663 9.61636L11.75 13.7314L10.1337 12.1164L10.0162 12.0126C9.77573 11.8262 9.47546 11.7339 9.17176 11.7531C8.86805 11.7722 8.58176 11.9015 8.36658 12.1167C8.1514 12.3319 8.0221 12.6182 8.00294 12.9219C7.98378 13.2256 8.07607 13.5258 8.2625 13.7664L8.36625 13.8839L10.8663 16.3839L10.9838 16.4876C11.203 16.6577 11.4725 16.75 11.75 16.75C12.0275 16.75 12.297 16.6577 12.5162 16.4876L12.6337 16.3839L17.6337 11.3839L17.7375 11.2664C17.9241 11.0259 18.0165 10.7255 17.9974 10.4218C17.9783 10.118 17.849 9.8316 17.6337 9.61636Z" fill="#6B5DA8"/>
</svg>
