<svg width="60" height="60" viewBox="0 0 60 60" fill="none" xmlns="http://www.w3.org/2000/svg">
<rect width="60" height="60" rx="10" fill="#F0F6FF"/>
<g clip-path="url(#clip0_342_348)">
<path d="M12.5627 47.9996H34.7337C34.8829 47.9996 35.026 47.9403 35.1315 47.8348C35.237 47.7294 35.2962 47.5863 35.2962 47.4371V42.0577C35.3048 41.2406 35.052 40.4421 34.5745 39.7789C34.097 39.1158 33.42 38.6226 32.6423 38.3716L26.9611 36.4778V34.6839C26.9611 34.6645 26.9601 34.6452 26.9582 34.6263C27.6773 34.0596 28.2407 33.3196 28.5957 32.4756C29.0066 32.4746 29.4087 32.3566 29.7551 32.1355C30.1015 31.9144 30.3778 31.5993 30.5518 31.227C30.7258 30.8547 30.7903 30.4406 30.7378 30.0331C30.6852 29.6255 30.5178 29.2413 30.255 28.9254C30.3388 28.5378 30.4793 27.8225 30.54 27.411C30.5585 27.2848 30.5768 27.1665 30.5942 27.0546C30.7574 26.003 30.8558 25.3684 30.2234 24.1776C29.5363 22.885 28.486 21.8216 27.202 21.1185C25.9179 20.4154 24.4562 20.1033 22.997 20.2207C21.5378 20.3381 20.1448 20.8799 18.9897 21.7792C17.8346 22.6786 16.9678 23.8963 16.4963 25.2822C16.4863 25.3116 16.4787 25.3418 16.4737 25.3725C16.2862 26.5169 16.4456 27.7116 16.9464 28.9264C16.6842 29.2422 16.5171 29.626 16.4646 30.0331C16.4121 30.4401 16.4764 30.8538 16.65 31.2257C16.8235 31.5977 17.0992 31.9126 17.4449 32.1339C17.7906 32.3552 18.1921 32.4737 18.6026 32.4756C18.9676 33.3393 19.5495 34.0942 20.2918 34.6671C20.3059 34.6781 20.3207 34.6882 20.3351 34.699V36.4779L14.6538 38.3716C13.8762 38.6227 13.1992 39.1158 12.7218 39.779C12.2444 40.4422 11.9916 41.2406 12.0002 42.0577V47.4371C12.0002 47.5863 12.0595 47.7294 12.165 47.8348C12.2705 47.9403 12.4135 47.9996 12.5627 47.9996ZM25.0304 40.5091L24.8041 41.8021H22.4922L22.29 40.6457C22.2797 40.5871 22.2601 40.5305 22.232 40.4781L23.6483 39.4726L25.0412 40.4618C25.0371 40.4771 25.0333 40.4929 25.0304 40.5091ZM22.6455 42.9271H24.6516L25.3417 46.8746H21.9547L22.6455 42.9271ZM34.1716 42.0577V46.8746H31.4813V44.4132C31.4813 44.264 31.4221 44.121 31.3166 44.0155C31.2111 43.91 31.068 43.8507 30.9188 43.8507C30.7697 43.8507 30.6266 43.91 30.5211 44.0155C30.4156 44.121 30.3563 44.264 30.3563 44.4132V46.8746H26.4837L25.7713 42.802L26.0548 41.1813L27.665 42.3247C27.7492 42.3845 27.8481 42.42 27.9511 42.4272C28.0541 42.4345 28.157 42.4133 28.2487 42.3659C28.3405 42.3186 28.4174 42.2469 28.4711 42.1588C28.5248 42.0706 28.5532 41.9694 28.5532 41.8662V38.1942L32.2868 39.4388C32.8392 39.6172 33.32 39.9676 33.659 40.4388C33.9981 40.91 34.1775 41.4772 34.1712 42.0577H34.1716ZM27.4286 37.8192V40.7767L24.6203 38.7824L26.4404 37.4898L27.4286 37.8192ZM28.9445 31.2872C29.0571 30.6366 29.0499 29.9709 28.9231 29.3229C29.1275 29.392 29.3054 29.5228 29.4321 29.6974C29.5589 29.872 29.6282 30.0817 29.6306 30.2974C29.6329 30.5132 29.5682 30.7243 29.4453 30.9016C29.3224 31.0789 29.1474 31.2137 28.9445 31.2872ZM17.5766 25.6001C17.9849 24.4289 18.7258 23.4021 19.7087 22.6455C20.6916 21.8889 21.8737 21.4354 23.1105 21.3404C24.3472 21.2455 25.5848 21.5132 26.6716 22.1109C27.7585 22.7086 28.6475 23.6102 29.2297 24.7054C29.6868 25.5656 29.6352 25.8974 29.4825 26.8821C29.4647 26.9968 29.4459 27.1179 29.4269 27.2471C29.3885 27.5079 29.3152 27.9018 29.247 28.2445C29.0341 28.1764 28.8121 28.1418 28.5886 28.1419H28.5686C27.9326 26.0432 27.2142 24.9568 26.3148 24.7292C25.9204 24.6293 25.3059 24.6561 24.6195 25.3503C24.587 25.3831 24.5586 25.4197 24.5351 25.4594C23.5064 27.1976 21.6693 28.0277 19.076 27.9273C18.9873 27.9239 18.8991 27.9415 18.8186 27.9788C18.738 28.0161 18.6675 28.0719 18.6127 28.1417C18.368 28.1417 18.1252 28.1833 17.8945 28.2648C17.5532 27.3444 17.4462 26.4499 17.5766 25.6001ZM17.5717 30.3089C17.5721 30.0989 17.6358 29.8938 17.7546 29.7206C17.8735 29.5474 18.0418 29.4141 18.2376 29.3382C18.1262 29.9818 18.129 30.6399 18.2457 31.2825C18.0479 31.2077 17.8775 31.0746 17.7571 30.9007C17.6367 30.7268 17.5721 30.5204 17.5717 30.309V30.3089ZM19.4541 29.0608H19.4988C22.2646 29.0608 24.2702 28.0648 25.4651 26.0963C25.6339 25.9345 25.8563 25.7732 26.0389 25.8199C26.2111 25.8634 26.8288 26.196 27.5455 28.6475C27.5514 28.6676 27.5585 28.6875 27.5666 28.7068C27.9328 29.5817 27.9995 30.5532 27.7563 31.4699C27.5131 32.3866 26.9736 33.1972 26.2219 33.7755C25.4701 34.3538 24.5482 34.6674 23.5998 34.6673C22.6513 34.6673 21.7295 34.3537 20.9778 33.7754C20.2816 33.232 19.7642 32.4923 19.4926 31.6519C19.221 30.8115 19.2076 29.9089 19.4541 29.0608ZM23.5997 35.7908C24.3711 35.7907 25.1336 35.6263 25.8364 35.3085V36.5387L23.6483 38.0926L21.4601 36.5387V35.3525C22.1362 35.642 22.8642 35.7911 23.5997 35.7908ZM20.8566 37.4898L22.6767 38.7824L19.8682 40.7767V37.8192L20.8566 37.4898ZM13.1252 42.0577C13.1189 41.4773 13.2984 40.91 13.6374 40.4389C13.9764 39.9677 14.4572 39.6173 15.0096 39.4388L18.7432 38.1943V41.8662C18.7432 41.9694 18.7716 42.0707 18.8253 42.1588C18.879 42.247 18.9559 42.3186 19.0476 42.366C19.1393 42.4134 19.2423 42.4346 19.3453 42.4273C19.4482 42.42 19.5472 42.3846 19.6314 42.3248L21.2415 41.1815L21.525 42.802L20.8127 46.8746H16.94V44.4132C16.94 44.264 16.8808 44.121 16.7753 44.0155C16.6698 43.91 16.5267 43.8507 16.3775 43.8507C16.2283 43.8507 16.0853 43.91 15.9798 44.0155C15.8743 44.121 15.815 44.264 15.815 44.4132V46.8746H13.1252V42.0577ZM48.0002 24.4547C48.0002 24.6039 47.941 24.747 47.8355 24.8525C47.73 24.958 47.5869 25.0172 47.4377 25.0172H32.6239C32.4747 25.0172 32.3317 24.958 32.2262 24.8525C32.1207 24.747 32.0614 24.6039 32.0614 24.4547C32.0614 24.3056 32.1207 24.1625 32.2262 24.057C32.3317 23.9515 32.4747 23.8922 32.6239 23.8922H34.7588V20.3907C34.7588 20.2415 34.8181 20.0984 34.9236 19.9929C35.0291 19.8874 35.1721 19.8282 35.3213 19.8282C35.4705 19.8282 35.6136 19.8874 35.7191 19.9929C35.8246 20.0984 35.8838 20.2415 35.8838 20.3907V23.8922H37.8985V17.5342C37.8985 17.385 37.9578 17.2419 38.0632 17.1364C38.1687 17.0309 38.3118 16.9717 38.461 16.9717C38.6102 16.9717 38.7532 17.0309 38.8587 17.1364C38.9642 17.2419 39.0235 17.385 39.0235 17.5342V23.8922H41.0382V18.808C41.0382 18.6588 41.0974 18.5158 41.2029 18.4103C41.3084 18.3048 41.4515 18.2455 41.6007 18.2455C41.7498 18.2455 41.8929 18.3048 41.9984 18.4103C42.1039 18.5158 42.1632 18.6588 42.1632 18.808V23.8922H44.1779V15.9128C44.1779 15.7636 44.2371 15.6206 44.3426 15.5151C44.4481 15.4096 44.5912 15.3503 44.7404 15.3503C44.8896 15.3503 45.0326 15.4096 45.1381 15.5151C45.2436 15.6206 45.3029 15.7636 45.3029 15.9128V23.8922H47.4377C47.5869 23.8922 47.73 23.9515 47.8355 24.057C47.941 24.1625 48.0002 24.3056 48.0002 24.4547ZM44.359 12.1486C44.4689 12.049 44.6137 11.9968 44.7619 12.0035C44.9101 12.0102 45.0497 12.0751 45.1502 12.1841C45.2508 12.2932 45.3042 12.4375 45.2988 12.5857C45.2935 12.734 45.2298 12.8741 45.1216 12.9756L41.982 15.8708C41.9035 15.9431 41.8062 15.9916 41.7012 16.0107C41.5963 16.0298 41.4881 16.0186 41.3892 15.9785L38.5776 14.8378L35.6999 17.4558C35.5894 17.5553 35.444 17.6071 35.2955 17.5997C35.147 17.5923 35.0075 17.5264 34.9074 17.4164C34.8073 17.3065 34.7549 17.1613 34.7615 17.0128C34.7681 16.8643 34.8333 16.7244 34.9428 16.6238L38.0824 13.7672C38.1608 13.6958 38.2578 13.648 38.3622 13.6293C38.4666 13.6106 38.5742 13.6219 38.6725 13.6617L41.4816 14.8014L44.359 12.1486ZM32.5017 29.7394C32.3768 29.7672 32.2651 29.8368 32.185 29.9366C32.105 30.0364 32.0614 30.1605 32.0614 30.2885V31.7082C32.0614 31.8361 32.105 31.9603 32.185 32.0601C32.2651 32.1599 32.3768 32.2295 32.5017 32.2573L32.9331 32.3532C33.0043 32.5729 33.0929 32.7865 33.198 32.9921L32.9607 33.3651C32.8919 33.4731 32.8621 33.6013 32.8761 33.7285C32.8901 33.8557 32.947 33.9744 33.0375 34.0648L34.0414 35.0685C34.1318 35.159 34.2505 35.2159 34.3777 35.2299C34.5048 35.2438 34.633 35.214 34.741 35.1453L35.114 34.9081C35.3196 35.0132 35.5332 35.1018 35.7529 35.173L35.8488 35.6043C35.8766 35.7292 35.9461 35.8409 36.046 35.9209C36.1458 36.001 36.2699 36.0446 36.3979 36.0446H37.8173C37.9453 36.0446 38.0694 36.001 38.1693 35.9209C38.2691 35.8409 38.3386 35.7292 38.3664 35.6043L38.4623 35.173C38.682 35.1018 38.8957 35.0132 39.1013 34.9081L39.474 35.1453C39.5819 35.214 39.7101 35.2438 39.8373 35.2299C39.9645 35.2159 40.0831 35.159 40.1736 35.0685L41.1774 34.0648C41.2679 33.9744 41.3249 33.8557 41.3389 33.7285C41.3528 33.6013 41.323 33.4731 41.2543 33.3651L41.017 32.9921C41.1221 32.7865 41.2107 32.5729 41.2819 32.3532L41.7132 32.2573C41.8381 32.2295 41.9498 32.1599 42.0299 32.0601C42.11 31.9603 42.1536 31.8361 42.1536 31.7082V30.2884C42.1536 30.1604 42.11 30.0363 42.0299 29.9364C41.9498 29.8366 41.8381 29.7671 41.7132 29.7393L41.2819 29.6434C41.2107 29.4237 41.1221 29.2101 41.017 29.0045L41.2543 28.6315C41.323 28.5235 41.3528 28.3953 41.3388 28.2681C41.3248 28.1409 41.2679 28.0222 41.1774 27.9318L40.1737 26.9281C40.0832 26.8376 39.9645 26.7807 39.8373 26.7667C39.7101 26.7527 39.5819 26.7826 39.474 26.8513L39.1013 27.0885C38.8957 26.9834 38.682 26.8948 38.4623 26.8236L38.3664 26.3923C38.3386 26.2674 38.2691 26.1557 38.1693 26.0756C38.0694 25.9956 37.9453 25.952 37.8173 25.952H36.3979C36.2699 25.952 36.1458 25.9956 36.046 26.0756C35.9462 26.1557 35.8766 26.2674 35.8488 26.3923L35.7529 26.8236C35.5332 26.8948 35.3196 26.9834 35.114 27.0885L34.741 26.8513C34.633 26.7826 34.5048 26.7527 34.3776 26.7667C34.2504 26.7807 34.1318 26.8376 34.0413 26.9281L33.0377 27.9318C32.9472 28.0222 32.8903 28.1409 32.8763 28.2681C32.8623 28.3953 32.8921 28.5235 32.9608 28.6315L33.1981 29.0045C33.093 29.2101 33.0044 29.4238 32.9332 29.6435L32.5017 29.7394ZM33.1864 30.7396L33.5058 30.6687C33.609 30.6457 33.7037 30.5941 33.779 30.5197C33.8542 30.4453 33.907 30.3513 33.9312 30.2483C34.0115 29.907 34.1467 29.581 34.3315 29.2831C34.3873 29.1932 34.4165 29.0893 34.4158 28.9835C34.4152 28.8777 34.3847 28.7742 34.3279 28.685L34.1522 28.4084L34.5178 28.0428L34.7943 28.2186C34.8836 28.2753 34.9869 28.3057 35.0926 28.3063C35.1983 28.3069 35.3021 28.2778 35.392 28.2222C35.69 28.0373 36.016 27.9022 36.3573 27.8219C36.4603 27.7977 36.5544 27.7449 36.6287 27.6697C36.7031 27.5945 36.7547 27.4998 36.7777 27.3966L36.8487 27.0771H37.3659L37.4369 27.3966C37.4599 27.4998 37.5115 27.5945 37.5859 27.6697C37.6602 27.745 37.7543 27.7977 37.8573 27.8219C38.1986 27.9022 38.5246 28.0374 38.8226 28.2222C38.9125 28.2778 39.0163 28.307 39.122 28.3063C39.2277 28.3057 39.331 28.2753 39.4203 28.2186L39.6968 28.0428L40.0624 28.4084L39.8866 28.685C39.8299 28.7742 39.7994 28.8777 39.7988 28.9835C39.7981 29.0893 39.8273 29.1932 39.8831 29.2831C40.0679 29.5811 40.2031 29.9071 40.2834 30.2484C40.3076 30.3514 40.3604 30.4454 40.4356 30.5198C40.5109 30.5941 40.6056 30.6457 40.7088 30.6687L41.0282 30.7396V31.2569L40.7088 31.3279C40.6056 31.3509 40.5109 31.4025 40.4356 31.4769C40.3604 31.5512 40.3076 31.6453 40.2834 31.7483C40.2031 32.0896 40.0679 32.4156 39.8831 32.7135C39.8273 32.8035 39.7981 32.9073 39.7988 33.0131C39.7994 33.1189 39.8299 33.2224 39.8866 33.3117L40.0624 33.5881L39.6968 33.9538L39.4203 33.778C39.331 33.7213 39.2276 33.6909 39.1219 33.6903C39.0162 33.6896 38.9125 33.7188 38.8226 33.7745C38.5246 33.9592 38.1986 34.0944 37.8573 34.1747C37.7543 34.1989 37.6603 34.2516 37.5859 34.3269C37.5116 34.4021 37.4599 34.4968 37.437 34.6001L37.3659 34.9195H36.8487L36.7778 34.6001C36.7548 34.4968 36.7032 34.4021 36.6288 34.3268C36.5544 34.2516 36.4603 34.1988 36.3573 34.1746C36.016 34.0944 35.69 33.9592 35.3921 33.7744C35.3022 33.7188 35.1984 33.6896 35.0927 33.6902C34.987 33.6909 34.8836 33.7213 34.7944 33.778L34.5179 33.9538L34.1522 33.5881L34.328 33.3117C34.3848 33.2224 34.4153 33.1189 34.4159 33.0131C34.4165 32.9073 34.3873 32.8035 34.3316 32.7135C34.1468 32.4155 34.0116 32.0895 33.9312 31.7481C33.907 31.6452 33.8542 31.5511 33.779 31.4768C33.7038 31.4025 33.6091 31.3509 33.5059 31.3279L33.1864 31.2569L33.1864 30.7396ZM37.1076 33.3816C37.579 33.3816 38.0399 33.2418 38.4319 32.9799C38.8238 32.718 39.1294 32.3457 39.3098 31.9102C39.4902 31.4746 39.5374 30.9954 39.4454 30.533C39.3534 30.0706 39.1264 29.6459 38.7931 29.3126C38.4597 28.9792 38.035 28.7522 37.5726 28.6602C37.1103 28.5683 36.631 28.6155 36.1955 28.7959C35.7599 28.9763 35.3876 29.2818 35.1257 29.6738C34.8638 30.0658 34.724 30.5266 34.724 30.998C34.7247 31.63 34.9761 32.2359 35.4229 32.6827C35.8698 33.1296 36.4757 33.3809 37.1076 33.3816ZM37.1076 29.7394C37.3565 29.7394 37.5999 29.8132 37.8069 29.9515C38.0138 30.0898 38.1751 30.2864 38.2704 30.5164C38.3657 30.7464 38.3906 30.9994 38.342 31.2436C38.2935 31.4877 38.1736 31.712 37.9976 31.888C37.8216 32.064 37.5973 32.1839 37.3532 32.2324C37.109 32.281 36.8559 32.2561 36.626 32.1608C36.396 32.0656 36.1994 31.9042 36.0611 31.6973C35.9228 31.4903 35.849 31.247 35.849 30.998C35.8494 30.6643 35.9821 30.3444 36.218 30.1085C36.454 29.8725 36.7739 29.7398 37.1076 29.7394Z" fill="#6B5DA8"/>
</g>
<defs>
<clipPath id="clip0_342_348">
<rect width="36" height="36" fill="white" transform="translate(12 12)"/>
</clipPath>
</defs>
</svg>
