<svg width="60" height="60" viewBox="0 0 60 60" fill="none" xmlns="http://www.w3.org/2000/svg">
<rect width="60" height="60" rx="10" fill="#F0F6FF"/>
<g clip-path="url(#clip0_342_357)">
<path d="M21.7078 23.2571C21.1382 23.2571 20.6748 23.7206 20.6748 24.2902V25.4198C20.6748 25.9895 21.1382 26.4529 21.7078 26.4529H27.6623C27.9536 26.4529 28.1897 26.2168 28.1897 25.9256C28.1897 25.6343 27.9536 25.3982 27.6623 25.3982H21.7295V24.3118H31.225V25.3982H30.0324C29.7411 25.3982 29.5051 25.6343 29.5051 25.9256C29.5051 26.2168 29.7411 26.4529 30.0324 26.4529H31.2466C31.8163 26.4529 32.2797 25.9895 32.2797 25.4198V24.2902C32.2797 23.7206 31.8162 23.2571 31.2466 23.2571H30.5598V20.3963H31.1576C31.7763 20.3963 32.2797 19.893 32.2797 19.2743C32.2797 18.5518 31.8944 17.8726 31.2744 17.5018L27.4316 15.2035C26.843 14.8514 26.1115 14.8514 25.5229 15.2035L21.6801 17.5018C21.06 17.8726 20.6749 18.5518 20.6749 19.2743C20.6749 19.893 21.1782 20.3963 21.7969 20.3963H22.3947V23.2571H21.7078ZM27.135 20.3963V23.2571H25.8195V20.3963H27.135ZM29.5051 23.2571H28.1897V20.3963H29.5051V23.2571ZM21.7295 19.2744C21.7295 18.9208 21.918 18.5885 22.2213 18.407L26.0641 16.1088C26.1915 16.0326 26.3343 15.9945 26.4771 15.9945C26.62 15.9945 26.7628 16.0326 26.8902 16.1088L30.733 18.407C31.0364 18.5885 31.2249 18.9208 31.2249 19.2744C31.2249 19.3115 31.1947 19.3417 31.1576 19.3417H21.7968C21.7597 19.3416 21.7295 19.3114 21.7295 19.2744ZM23.4493 20.3963H24.7648V23.2571H23.4493V20.3963Z" fill="#6B5DA8"/>
<path d="M43.6449 27.261H39.1467V13.8503C39.1467 12.83 38.3166 12 37.2964 12H15.6589C14.6386 12 13.8086 12.83 13.8086 13.8503V16.4412C13.8086 16.7325 14.0446 16.9686 14.3359 16.9686C14.6272 16.9686 14.8633 16.7325 14.8633 16.4412V13.8503C14.8633 13.4116 15.2202 13.0547 15.6589 13.0547H37.2964C37.7351 13.0547 38.0919 13.4116 38.0919 13.8503V27.261H34.4723C33.2837 27.261 32.3167 28.2281 32.3167 29.4167V29.4726H22.8766C22.5853 29.4726 22.3492 29.7087 22.3492 29.9999C22.3492 30.2912 22.5853 30.5273 22.8766 30.5273H32.3167V34.5304H22.8766C22.5853 34.5304 22.3492 34.7666 22.3492 35.0578C22.3492 35.349 22.5853 35.5851 22.8766 35.5851H32.3167V37.6788C32.3167 38.3636 32.502 39.0191 32.8419 39.5883H22.8766C22.5853 39.5883 22.3492 39.8244 22.3492 40.1156C22.3492 40.4069 22.5853 40.643 22.8766 40.643H33.782L34.4694 41.1888C34.6975 41.3698 35.0293 41.3317 35.2103 41.1036C35.3914 40.8755 35.3533 40.5439 35.1252 40.3627L34.3829 39.7734C33.74 39.263 33.3713 38.4996 33.3713 37.6788V29.4168C33.3713 28.8097 33.8652 28.3158 34.4722 28.3158H43.6449C44.4675 28.3158 45.1368 28.9851 45.1368 29.8078V37.6788C45.1368 38.4997 44.7681 39.2631 44.1252 39.7735L40.3732 42.7523C39.7143 43.2754 38.7941 43.2754 38.135 42.7523L37.1017 41.932C36.8737 41.7509 36.542 41.789 36.3608 42.017C36.1798 42.2451 36.2179 42.5769 36.446 42.758L37.4793 43.5783C37.6713 43.7307 37.8773 43.8549 38.0921 43.9513V46.1497C38.0921 46.5883 37.7352 46.9452 37.2966 46.9452H15.6589C15.2202 46.9452 14.8633 46.5883 14.8633 46.1497V18.995C14.8633 18.7037 14.6272 18.4676 14.3359 18.4676C14.0446 18.4676 13.8086 18.7037 13.8086 18.995V46.1497C13.8086 47.1699 14.6386 47.9999 15.6589 47.9999H37.2964C38.3166 47.9999 39.1466 47.1699 39.1466 46.1497V44.1983C39.7218 44.2261 40.4754 44.0224 41.0289 43.5783L44.7809 40.5995C45.6773 39.8878 46.1914 38.8232 46.1914 37.6788V29.8077C46.1914 28.4035 45.049 27.261 43.6449 27.261Z" fill="#6B5DA8"/>
<path d="M38.5427 38.2124C39.2148 38.2124 39.8872 37.9565 40.3989 37.4448L43.323 34.5208C43.9211 33.9227 43.9211 32.9495 43.323 32.3514C43.0332 32.0616 42.648 31.9021 42.2382 31.9021C41.8285 31.9021 41.4433 32.0617 41.1535 32.3514L38.5426 34.9622L37.3554 33.775C37.0656 33.4853 36.6804 33.3257 36.2706 33.3257C35.8609 33.3257 35.4756 33.4853 35.1859 33.775C34.5878 34.3731 34.5878 35.3463 35.1859 35.9444L36.6863 37.4448C37.1983 37.9566 37.8704 38.2125 38.5427 38.2124ZM35.9318 34.5207C36.0223 34.4302 36.1427 34.3803 36.2707 34.3803C36.3987 34.3803 36.5191 34.4302 36.6096 34.5207L37.8821 35.7931C38.0585 35.9696 38.2931 36.0668 38.5427 36.0668C38.7923 36.0668 39.0269 35.9696 39.2034 35.7931L41.8994 33.0971C41.9899 33.0066 42.1103 32.9567 42.2383 32.9567C42.3663 32.9567 42.4867 33.0066 42.5772 33.0971C42.7641 33.284 42.7641 33.5881 42.5772 33.775L39.6531 36.699C39.3565 36.9956 38.9621 37.159 38.5427 37.159C38.1232 37.159 37.7289 36.9957 37.4323 36.699L35.9318 35.1986C35.7449 35.0117 35.7449 34.7076 35.9318 34.5207Z" fill="#6B5DA8"/>
<path d="M19.4319 28.1094H18.1871C17.4878 28.1094 16.9189 28.6783 16.9189 29.3775V30.6224C16.9189 31.3217 17.4878 31.8906 18.1871 31.8906H19.4319C20.1312 31.8906 20.7001 31.3217 20.7001 30.6224V29.3775C20.7001 28.6783 20.1312 28.1094 19.4319 28.1094ZM19.6454 30.6224C19.6454 30.7401 19.5496 30.8359 19.4319 30.8359H18.1871C18.0694 30.8359 17.9736 30.7401 17.9736 30.6224V29.3775C17.9736 29.2598 18.0694 29.1641 18.1871 29.1641H19.4319C19.5496 29.1641 19.6454 29.2598 19.6454 29.3775V30.6224Z" fill="#6B5DA8"/>
<path d="M16.9189 35.6803C16.9189 36.3795 17.4878 36.9484 18.1871 36.9484H19.4319C20.1312 36.9484 20.7001 36.3795 20.7001 35.6803V34.4354C20.7001 33.7361 20.1312 33.1672 19.4319 33.1672H18.1871C17.4878 33.1672 16.9189 33.7361 16.9189 34.4354V35.6803ZM17.9736 34.4354C17.9736 34.3177 18.0694 34.2219 18.1871 34.2219H19.4319C19.5496 34.2219 19.6454 34.3177 19.6454 34.4354V35.6803C19.6454 35.798 19.5496 35.8937 19.4319 35.8937H18.1871C18.0694 35.8937 17.9736 35.798 17.9736 35.6803V34.4354Z" fill="#6B5DA8"/>
<path d="M16.9189 40.7381C16.9189 41.4374 17.4878 42.0063 18.1871 42.0063H19.4319C20.1312 42.0063 20.7001 41.4374 20.7001 40.7381V39.4933C20.7001 38.794 20.1312 38.2251 19.4319 38.2251H18.1871C17.4878 38.2251 16.9189 38.794 16.9189 39.4933V40.7381ZM17.9736 39.4933C17.9736 39.3756 18.0694 39.2799 18.1871 39.2799H19.4319C19.5496 39.2799 19.6454 39.3756 19.6454 39.4933V40.7382C19.6454 40.8559 19.5496 40.9517 19.4319 40.9517H18.1871C18.0694 40.9517 17.9736 40.8559 17.9736 40.7382V39.4933Z" fill="#6B5DA8"/>
</g>
<defs>
<clipPath id="clip0_342_357">
<rect width="36" height="36" fill="white" transform="translate(12 12)"/>
</clipPath>
</defs>
</svg>
