<svg width="60" height="60" viewBox="0 0 60 60" fill="none" xmlns="http://www.w3.org/2000/svg">
<rect width="60" height="60" rx="10" fill="#F0F6FF"/>
<g clip-path="url(#clip0_342_372)">
<path d="M47.6877 38.1929L43.9977 36.3479L41.6492 30.2392C41.6216 30.1669 41.5794 30.1012 41.5252 30.046C41.471 29.9908 41.406 29.9475 41.3342 29.9185L26.7627 24.0938C26.6608 24.0533 26.5493 24.0434 26.4418 24.0654C26.3344 24.0874 26.2357 24.1403 26.158 24.2176L24.2146 26.161C24.1383 26.2389 24.0862 26.3372 24.0647 26.444C24.0433 26.5509 24.0533 26.6617 24.0936 26.7629L29.9183 41.3345C29.9472 41.4062 29.9906 41.4712 30.0458 41.5254C30.1009 41.5796 30.1667 41.6218 30.2389 41.6495L36.3477 43.9979L38.1927 47.6879C38.2315 47.7693 38.2894 47.8401 38.3613 47.8944C38.4333 47.9488 38.5172 47.985 38.6061 48.0001C38.636 48.0029 38.6662 48.0029 38.6961 48.0001C38.8451 47.9995 38.9877 47.9398 39.0927 47.8342L47.8339 39.0929C47.8983 39.0308 47.9469 38.9543 47.9757 38.8697C48.0046 38.7851 48.0129 38.6948 47.9999 38.6063C47.9848 38.5175 47.9485 38.4335 47.8942 38.3615C47.8399 38.2896 47.769 38.2318 47.6877 38.1929ZM25.272 26.6898L25.5842 26.3804L32.8377 33.6338C32.3596 34.3112 32.1532 35.1433 32.2591 35.9656C32.3651 36.7878 32.7757 37.5404 33.4098 38.0745C34.0439 38.6085 34.8554 38.8852 35.6837 38.8498C36.512 38.8144 37.2968 38.4695 37.8831 37.8833C38.4693 37.2971 38.8142 36.5122 38.8496 35.6839C38.885 34.8556 38.6083 34.0442 38.0742 33.41C37.5402 32.7759 36.7876 32.3653 35.9653 32.2594C35.1431 32.1534 34.311 32.3599 33.6336 32.8379L26.3802 25.5845L26.6895 25.2723L40.6874 30.872L42.8952 36.6151L36.6149 42.8954L30.8717 40.6876L25.272 26.6898ZM35.5405 33.3554C36.046 33.3562 36.5357 33.5322 36.926 33.8534C37.3163 34.1747 37.5832 34.6214 37.6811 35.1173C37.7791 35.6133 37.702 36.1279 37.4631 36.5734C37.2242 37.019 36.8383 37.3679 36.371 37.5607C35.9037 37.7536 35.3839 37.7785 34.9003 37.6312C34.4167 37.4838 33.9992 37.1734 33.7188 36.7527C33.4384 36.332 33.3126 35.8272 33.3627 35.3241C33.4128 34.8211 33.6358 34.3509 33.9936 33.9938C34.4043 33.5845 34.9606 33.3549 35.5405 33.3554ZM38.8508 46.487L37.4446 43.6745L43.6686 37.4504L46.4811 38.8567L38.8508 46.487Z" fill="#6B5DA8"/>
<path d="M22.7573 42.0937C22.6498 41.992 22.5074 41.9354 22.3594 41.9354C22.2114 41.9354 22.069 41.992 21.9614 42.0937L21.247 42.8081C19.3407 40.2207 18.289 37.1031 18.2386 33.8896C18.1882 30.6762 19.1415 27.5271 20.9658 24.8812C21.5123 25.1819 22.1416 25.2975 22.7594 25.2105C23.3771 25.1234 23.95 24.8386 24.3922 24.3986C24.8344 23.9586 25.1222 23.3871 25.2123 22.7698C25.3024 22.1525 25.19 21.5227 24.892 20.9746C27.5379 19.1504 30.687 18.197 33.9005 18.2474C37.1139 18.2978 40.2315 19.3495 42.8189 21.2559L42.0933 21.9618C41.9887 22.0673 41.93 22.2098 41.9302 22.3584C41.9297 22.4324 41.9439 22.5058 41.9719 22.5743C41.9999 22.6429 42.0411 22.7052 42.0933 22.7578L44.5739 25.2187C44.6793 25.3235 44.8219 25.3823 44.9705 25.3823C45.1191 25.3823 45.2616 25.3235 45.367 25.2187L47.8336 22.7521C47.8859 22.6999 47.9274 22.6378 47.9557 22.5696C47.984 22.5013 47.9986 22.4281 47.9986 22.3542C47.9986 22.2802 47.984 22.207 47.9557 22.1388C47.9274 22.0705 47.8859 22.0084 47.8336 21.9562L45.367 19.4896C45.2616 19.3849 45.1191 19.3261 44.9705 19.3261C44.8219 19.3261 44.6793 19.3849 44.5739 19.4896L43.6205 20.4374C41.2706 18.6692 38.4925 17.5583 35.5714 17.2187C32.6503 16.8791 29.6914 17.3232 26.9986 18.5053L30.2414 15.2709C30.6091 15.4466 31.0271 15.4863 31.4214 15.3831C31.8156 15.2799 32.1605 15.0404 32.3949 14.7071C32.6294 14.3738 32.7381 13.9682 32.702 13.5623C32.6658 13.1564 32.487 12.7764 32.1974 12.4898C31.9077 12.2031 31.5259 12.0284 31.1196 11.9965C30.7133 11.9646 30.3089 12.0777 29.9781 12.3156C29.6473 12.5535 29.4114 12.901 29.3123 13.2962C29.2133 13.6915 29.2575 14.1091 29.437 14.4749L23.9639 19.9565C23.4082 19.5837 22.7403 19.4155 22.0743 19.4805C21.4083 19.5454 20.7856 19.8396 20.3124 20.3128C19.8392 20.786 19.545 21.4087 19.4801 22.0747C19.4151 22.7407 19.5833 23.4086 19.9561 23.9643L14.4745 29.4374C14.1073 29.2585 13.6885 29.2155 13.2926 29.3162C12.8966 29.4169 12.5492 29.6546 12.312 29.9873C12.0749 30.3199 11.9633 30.7259 11.9972 31.133C12.031 31.5401 12.2081 31.922 12.497 32.2109C12.7859 32.4998 13.1678 32.6769 13.5749 32.7108C13.9821 32.7446 14.388 32.6331 14.7206 32.3959C15.0533 32.1587 15.291 31.8113 15.3917 31.4154C15.4924 31.0194 15.4494 30.6006 15.2705 30.2334L18.5133 26.999C17.33 29.6911 16.8846 32.6495 17.2227 35.5706C17.5608 38.4917 18.6702 41.2703 20.437 43.6209L19.4864 44.5743C19.3816 44.6797 19.3228 44.8223 19.3228 44.9709C19.3228 45.1195 19.3816 45.262 19.4864 45.3674L21.953 47.834C22.058 47.9396 22.2006 47.9993 22.3495 47.9999C22.4238 48 22.4973 47.9854 22.5658 47.9569C22.6343 47.9284 22.6966 47.8866 22.7489 47.834L25.2183 45.3674C25.323 45.262 25.3819 45.1195 25.3819 44.9709C25.3819 44.8223 25.323 44.6797 25.2183 44.5743L22.7573 42.0937ZM44.9761 20.6765L46.6467 22.3471L44.9761 24.0178L43.3055 22.3471L44.9761 20.6765ZM30.562 13.3021C30.6456 13.2179 30.7524 13.1603 30.8687 13.1368C30.985 13.1133 31.1057 13.1249 31.2155 13.1701C31.3252 13.2153 31.4191 13.2921 31.4851 13.3907C31.5512 13.4893 31.5864 13.6053 31.5864 13.724C31.5864 13.8427 31.5512 13.9587 31.4851 14.0573C31.4191 14.156 31.3252 14.2327 31.2155 14.2779C31.1057 14.3231 30.985 14.3347 30.8687 14.3112C30.7524 14.2877 30.6456 14.2301 30.562 14.1459C30.5066 14.0905 30.4626 14.0247 30.4326 13.9523C30.4026 13.88 30.3871 13.8024 30.3871 13.724C30.3871 13.6456 30.4026 13.568 30.4326 13.4957C30.4626 13.4233 30.5066 13.3575 30.562 13.3021ZM21.112 21.1124C21.2754 20.9483 21.4695 20.8181 21.6833 20.7292C21.8972 20.6404 22.1264 20.5946 22.358 20.5946C22.5895 20.5946 22.8188 20.6404 23.0326 20.7292C23.2464 20.8181 23.4406 20.9483 23.6039 21.1124C23.8508 21.3589 24.019 21.6732 24.0873 22.0153C24.1556 22.3575 24.1208 22.7122 23.9874 23.0346C23.8541 23.357 23.628 23.6325 23.338 23.8264C23.0479 24.0203 22.7069 24.1238 22.358 24.1238C22.0091 24.1238 21.668 24.0203 21.378 23.8264C21.0879 23.6325 20.8619 23.357 20.7285 23.0346C20.5951 22.7122 20.5604 22.3575 20.6286 22.0153C20.6969 21.6732 20.8651 21.3589 21.112 21.1124ZM14.1483 31.4062C14.0334 31.502 13.8869 31.5513 13.7376 31.5446C13.5882 31.5378 13.4467 31.4754 13.341 31.3697C13.2353 31.264 13.1729 31.1225 13.1662 30.9732C13.1594 30.8238 13.2088 30.6773 13.3045 30.5624C13.4171 30.4518 13.5686 30.3898 13.7264 30.3898C13.8842 30.3898 14.0357 30.4518 14.1483 30.5624C14.2037 30.6178 14.2477 30.6836 14.2777 30.756C14.3077 30.8284 14.3232 30.906 14.3232 30.9843C14.3232 31.0627 14.3077 31.1403 14.2777 31.2127C14.2477 31.285 14.2037 31.3508 14.1483 31.4062ZM22.358 46.6303L20.6873 44.9596L22.358 43.289L24.0286 44.9596L22.358 46.6303Z" fill="#6B5DA8"/>
</g>
<defs>
<clipPath id="clip0_342_372">
<rect width="36" height="36" fill="white" transform="translate(12 12)"/>
</clipPath>
</defs>
</svg>
