<svg width="60" height="60" viewBox="0 0 60 60" fill="none" xmlns="http://www.w3.org/2000/svg">
<rect width="60" height="60" rx="10" fill="#F0F6FF"/>
<g clip-path="url(#clip0_342_382)">
<path d="M47.4552 20.3148C47.4526 20.2996 47.4532 20.2836 47.4493 20.2687C47.4384 20.2277 47.4222 20.1883 47.4012 20.1514C47.3941 20.1388 47.3835 20.1286 47.375 20.1168C47.3599 20.0931 47.3428 20.0707 47.3238 20.0499C47.3123 20.0381 47.2977 20.0299 47.285 20.0192C47.2662 20.0019 47.2461 19.9861 47.2248 19.972L47.2212 19.9706L47.2181 19.9683L43.1059 17.6123C43.0314 17.5696 42.9471 17.5472 42.8612 17.5472C42.7754 17.5472 42.691 17.5696 42.6165 17.6123L38.5021 19.968L38.499 19.9703L38.4954 19.9717C38.474 19.9859 38.4538 20.0018 38.4349 20.0192C38.4223 20.0296 38.4068 20.0381 38.3964 20.0496C38.3772 20.0706 38.3599 20.0933 38.3446 20.1174C38.3365 20.1292 38.3261 20.139 38.319 20.1514C38.298 20.1883 38.2819 20.2277 38.271 20.2687C38.267 20.283 38.2676 20.2985 38.265 20.3131C38.2592 20.3401 38.2556 20.3674 38.2544 20.395V21.3976L34.595 19.106C34.6003 19.0814 34.6037 19.0564 34.6051 19.0312V14.9176C34.6038 14.8906 34.6003 14.8637 34.5945 14.8372C34.5919 14.822 34.5925 14.806 34.5885 14.7911C34.5776 14.7502 34.5615 14.7108 34.5405 14.6741C34.5306 14.6595 34.52 14.6454 34.5087 14.6319C34.4951 14.611 34.48 14.5911 34.4634 14.5725C34.4486 14.5594 34.433 14.5472 34.4167 14.536C34.4001 14.521 34.3824 14.5072 34.3638 14.4946H34.361L34.359 14.4904L30.2444 12.1347C30.1699 12.092 30.0855 12.0696 29.9997 12.0696C29.9138 12.0696 29.8295 12.092 29.755 12.1347L25.6403 14.4904L25.6369 14.493H25.6341C25.6154 14.5056 25.5977 14.5195 25.581 14.5346C25.5648 14.5457 25.5493 14.5579 25.5345 14.5709C25.5177 14.5897 25.5024 14.6098 25.4887 14.631C25.4776 14.6443 25.4672 14.6581 25.4575 14.6724C25.4365 14.7092 25.4203 14.7487 25.4094 14.7897C25.4055 14.804 25.406 14.8195 25.4035 14.8341C25.3976 14.861 25.394 14.8884 25.3928 14.916V19.0312C25.3942 19.0565 25.3976 19.0816 25.4029 19.1063L21.7444 21.3976V20.3953C21.7431 20.3682 21.7395 20.3413 21.7337 20.3148C21.7312 20.2996 21.7318 20.2836 21.7278 20.2687C21.7169 20.2277 21.7008 20.1883 21.6797 20.1514C21.6727 20.1388 21.662 20.1286 21.6536 20.1168C21.6385 20.0931 21.6214 20.0707 21.6024 20.0499C21.5909 20.0381 21.5762 20.0299 21.5636 20.0192C21.5448 20.0019 21.5247 19.9861 21.5034 19.972L21.4997 19.9706L21.4966 19.9683L17.3839 17.6123C17.3094 17.5696 17.2251 17.5472 17.1392 17.5472C17.0534 17.5472 16.969 17.5696 16.8945 17.6123L12.781 19.968L12.7779 19.9703L12.7742 19.9717C12.7529 19.9859 12.7326 20.0018 12.7138 20.0192C12.7011 20.0296 12.6856 20.0381 12.6752 20.0496C12.656 20.0706 12.6387 20.0933 12.6235 20.1174C12.6153 20.1292 12.6049 20.139 12.5979 20.1514C12.5769 20.1883 12.5607 20.2277 12.5498 20.2687C12.5459 20.283 12.5464 20.2985 12.5439 20.3131C12.538 20.3401 12.5344 20.3674 12.5332 20.395V24.5085C12.5332 24.5969 12.557 24.6837 12.6021 24.7597C12.6471 24.8357 12.7119 24.8982 12.7894 24.9405L16.6468 27.0468V32.6825L12.781 34.8965L12.7779 34.8988L12.7742 34.9002C12.7529 34.9144 12.7326 34.9303 12.7138 34.9477C12.7011 34.9581 12.6856 34.9665 12.6752 34.9781C12.656 34.9991 12.6387 35.0218 12.6235 35.0459C12.6153 35.0577 12.6049 35.0675 12.5979 35.0799C12.5769 35.1167 12.5607 35.1562 12.5498 35.1972C12.5459 35.2115 12.5464 35.227 12.5439 35.2416C12.538 35.2685 12.5344 35.2959 12.5332 35.3235V39.437C12.5332 39.5254 12.5571 39.6122 12.6023 39.6883C12.6475 39.7643 12.7123 39.8267 12.79 39.869L16.9033 42.1142C16.9264 42.1255 16.9504 42.1349 16.975 42.1424C16.9882 42.1471 17.0006 42.1542 17.0141 42.1575C17.0959 42.1798 17.1823 42.1798 17.2641 42.1575C17.2776 42.1539 17.29 42.1469 17.3032 42.1424C17.3278 42.1349 17.3518 42.1255 17.3749 42.1142L20.8675 40.2076L25.3956 43.2224V45.2623C25.3956 45.3506 25.4194 45.4374 25.4645 45.5134C25.5096 45.5894 25.5743 45.6519 25.6518 45.6943L29.7651 47.9395C29.7882 47.9507 29.8122 47.9601 29.8368 47.9676C29.85 47.9724 29.8624 47.9794 29.8759 47.9828C29.9578 48.0051 30.0441 48.0051 30.126 47.9828C30.1395 47.9791 30.1518 47.9721 30.165 47.9676C30.1897 47.9601 30.2136 47.9507 30.2368 47.9395L34.3489 45.6937C34.4265 45.6513 34.4912 45.5889 34.5363 45.5128C34.5814 45.4368 34.6052 45.3501 34.6051 45.2617V43.2218L39.1333 40.2071L42.6258 42.1137C42.6489 42.1249 42.6729 42.1343 42.6975 42.1418C42.7108 42.1466 42.7231 42.1536 42.7366 42.157C42.8185 42.1793 42.9048 42.1793 42.9867 42.157C43.0002 42.1533 43.0125 42.1463 43.0258 42.1418C43.0504 42.1343 43.0744 42.1249 43.0975 42.1137L47.2094 39.869C47.2869 39.8266 47.3516 39.7642 47.3967 39.6882C47.4418 39.6121 47.4656 39.5254 47.4656 39.437V35.3237C47.4643 35.2967 47.4607 35.2698 47.4549 35.2433C47.4524 35.2281 47.4529 35.2121 47.449 35.1972C47.4381 35.1562 47.4219 35.1167 47.4009 35.0799C47.3939 35.0672 47.3832 35.0571 47.3747 35.0453C47.3596 35.0215 47.3425 34.9992 47.3235 34.9784C47.312 34.9665 47.2974 34.9584 47.2847 34.9477C47.2659 34.9304 47.2458 34.9146 47.2245 34.9005L47.2209 34.899L47.2178 34.8968L43.352 32.6828V27.0468L47.2091 24.9414C47.2866 24.899 47.3514 24.8365 47.3964 24.7605C47.4415 24.6845 47.4653 24.5978 47.4653 24.5094V20.3953C47.4642 20.3682 47.4608 20.3413 47.4552 20.3148ZM32.9787 41.2075L29.9997 42.8337L27.0207 41.2075L26.8947 41.1386L29.9997 39.3605L33.1047 41.1374L32.9787 41.2075ZM20.76 24.2166L17.6311 25.9244V22.9327L20.76 21.2249V24.2166ZM17.139 33.535L20.244 35.313L20.118 35.382L17.139 37.0081L14.16 35.382L14.034 35.313L17.139 33.535ZM21.2109 34.7325L17.6311 32.6822V27.0468L20.892 25.2668L25.3942 28.1963V31.7873L21.2109 34.7325ZM26.3786 18.739V15.7473L29.5075 17.4562V20.447L26.3786 18.739ZM33.6208 18.739L30.4919 20.447V17.4562L33.6208 15.7479V18.739ZM29.9997 26.1406L33.1047 27.9187L32.9787 27.9876L29.9997 29.6138L27.0207 27.9876L26.8947 27.9187L29.9997 26.1406ZM26.3786 28.7588L29.5075 30.4668V33.4593L26.3786 31.7507V28.7588ZM30.4919 30.4668L33.6208 28.7588V31.7507L30.4919 33.4593V30.4668ZM34.6051 28.1963L39.1074 25.2659L42.3682 27.0468V32.6825L38.7885 34.7328L34.6051 31.7873V28.1963ZM42.3676 22.9327V25.9244L39.2393 24.2166V21.2249L42.3676 22.9327ZM39.2393 39.1451V36.1531L42.3682 37.8612V40.8528L39.2393 39.1451ZM45.8394 35.382L42.8604 37.0081L39.8811 35.382L39.7551 35.313L42.8601 33.535L45.9651 35.313L45.8394 35.382ZM42.8604 18.6065L45.9654 20.3846L45.8394 20.4535L42.8604 22.0797L39.8811 20.4535L39.7551 20.3846L42.8604 18.6065ZM38.2721 24.6348L34.0966 27.3525L30.4919 25.2882V21.5686L33.7937 19.7658L38.2546 22.5592V24.5083C38.2549 24.551 38.2608 24.5936 38.2721 24.6348ZM29.9997 13.1292L33.1044 14.9075L30.1358 16.5281L29.9997 16.6023L29.8635 16.5281L26.895 14.9072L29.9997 13.1292ZM26.2056 19.7667L29.5075 21.5695V25.2882L25.9027 27.3525L21.7273 24.6348C21.7385 24.5936 21.7442 24.551 21.7444 24.5083V22.5592L26.2056 19.7667ZM17.139 18.6065L20.244 20.3846L20.118 20.4535L17.139 22.0797L14.16 20.4535L14.034 20.3846L17.139 18.6065ZM13.5184 21.2249L16.6473 22.933V25.9244L13.5184 24.2166V21.2249ZM13.5184 36.1534L16.6473 37.8615V40.8531L13.5184 39.1451V36.1534ZM17.6317 37.8615L20.7606 36.1534V39.1451L17.6317 40.8528V37.8615ZM21.7171 39.5906C21.7347 39.5411 21.7442 39.4892 21.7453 39.4367V35.5611L25.9193 32.6215L29.5075 34.5801V38.508L25.6403 40.722L25.6372 40.7243L25.6335 40.7257C25.6122 40.7399 25.5919 40.7558 25.5731 40.7732C25.5604 40.7836 25.545 40.7921 25.5345 40.8036C25.5154 40.8246 25.498 40.8473 25.4828 40.8714C25.4746 40.8832 25.4642 40.893 25.4572 40.9054C25.4362 40.9423 25.42 40.9817 25.4091 41.0227C25.4052 41.037 25.4057 41.0525 25.4032 41.0671C25.3973 41.0941 25.3937 41.1214 25.3925 41.149V42.0394L21.7171 39.5906ZM26.3786 42.9563V41.9784L29.5075 43.6864V46.6781L26.3786 44.9703V42.9563ZM30.4919 46.6781V43.6867L33.6208 41.9787V44.9706L30.4919 46.6781ZM34.6051 41.149C34.6038 41.1219 34.6003 41.095 34.5945 41.0685C34.5919 41.0534 34.5925 41.0373 34.5885 41.0224C34.5776 40.9814 34.5615 40.942 34.5405 40.9051C34.5334 40.8925 34.5227 40.8824 34.5143 40.8705C34.4992 40.8468 34.4821 40.8244 34.4631 40.8036C34.4516 40.7918 34.437 40.7836 34.4243 40.7729C34.4055 40.7556 34.3854 40.7398 34.3641 40.7257L34.3605 40.7243L34.3574 40.722L30.4919 38.508V34.5801L34.08 32.6215L38.2549 35.5611V39.437C38.256 39.4895 38.2655 39.5414 38.283 39.5909L34.606 42.0397L34.6051 41.149ZM43.352 40.8525V37.8612L46.4809 36.1531V39.1451L43.352 40.8525ZM43.352 25.9241V22.9327L46.4809 21.2249V24.2166L43.352 25.9241Z" fill="#6B5DA8"/>
</g>
<defs>
<clipPath id="clip0_342_382">
<rect width="36" height="36" fill="white" transform="translate(12 12)"/>
</clipPath>
</defs>
</svg>
