<svg width="20" height="21" viewBox="0 0 20 21" fill="none" xmlns="http://www.w3.org/2000/svg">
<g clip-path="url(#clip0_458_462)">
<path d="M3.33301 6.33329C3.33301 5.89127 3.5086 5.46734 3.82116 5.15478C4.13372 4.84222 4.55765 4.66663 4.99967 4.66663H14.9997C15.4417 4.66663 15.8656 4.84222 16.1782 5.15478C16.4907 5.46734 16.6663 5.89127 16.6663 6.33329V16.3333C16.6663 16.7753 16.4907 17.1992 16.1782 17.5118C15.8656 17.8244 15.4417 18 14.9997 18H4.99967C4.55765 18 4.13372 17.8244 3.82116 17.5118C3.5086 17.1992 3.33301 16.7753 3.33301 16.3333V6.33329Z" stroke="#555555" stroke-width="1.2" stroke-linecap="round" stroke-linejoin="round"/>
<path d="M13.333 3V6.33333" stroke="#555555" stroke-width="1.2" stroke-linecap="round" stroke-linejoin="round"/>
<path d="M6.66699 3V6.33333" stroke="#555555" stroke-width="1.2" stroke-linecap="round" stroke-linejoin="round"/>
<path d="M3.33301 9.66663H16.6663" stroke="#555555" stroke-width="1.2" stroke-linecap="round" stroke-linejoin="round"/>
<path d="M5.83301 12.1666H5.84384" stroke="#555555" stroke-width="1.2" stroke-linecap="round" stroke-linejoin="round"/>
<path d="M8.3418 12.1666H8.3468" stroke="#555555" stroke-width="1.2" stroke-linecap="round" stroke-linejoin="round"/>
<path d="M10.8418 12.1666H10.8468" stroke="#555555" stroke-width="1.2" stroke-linecap="round" stroke-linejoin="round"/>
<path d="M13.3457 12.1666H13.3507" stroke="#555555" stroke-width="1.2" stroke-linecap="round" stroke-linejoin="round"/>
<path d="M10.8457 14.6666H10.8507" stroke="#555555" stroke-width="1.2" stroke-linecap="round" stroke-linejoin="round"/>
<path d="M5.8418 14.6666H5.8468" stroke="#555555" stroke-width="1.2" stroke-linecap="round" stroke-linejoin="round"/>
<path d="M8.3418 14.6666H8.3468" stroke="#555555" stroke-width="1.2" stroke-linecap="round" stroke-linejoin="round"/>
</g>
<defs>
<clipPath id="clip0_458_462">
<rect width="20" height="20" fill="white" transform="translate(0 0.5)"/>
</clipPath>
</defs>
</svg>
