<svg width="36" height="40" viewBox="0 0 36 40" fill="none" xmlns="http://www.w3.org/2000/svg">
<path fill-rule="evenodd" clip-rule="evenodd" d="M7.44669 21.5452C5.257 21.5452 3.48192 23.3203 3.48192 25.5099C3.48192 27.6996 5.257 29.4747 7.44669 29.4747C9.63637 29.4747 11.4115 27.6996 11.4115 25.5099C11.4115 23.3203 9.63637 21.5452 7.44669 21.5452ZM19.8179 8.40307C20.214 8.00479 20.8579 8.00299 21.2562 8.39908C21.6545 8.79518 21.6563 9.43916 21.2602 9.83744L17.8632 13.2664C17.4697 13.6621 16.8318 13.6663 16.4329 13.2782L14.7522 11.64C14.3495 11.2484 14.3406 10.6044 14.7322 10.2017C15.1239 9.79908 15.7679 9.79018 16.1705 10.1818L17.1295 11.1167L19.8179 8.40307ZM26.1055 15.6267C27.5936 15.1116 28.2752 13.0135 27.3743 11.7221C26.9952 11.1788 26.9951 10.4906 27.3742 9.94736C28.2753 8.65596 27.5936 6.55783 26.1056 6.0426C25.4796 5.82588 25.075 5.26924 25.0624 4.60689C25.0323 3.03252 23.2475 1.73572 21.7409 2.19354C21.1071 2.38619 20.4526 2.17361 20.0531 1.64518C19.1034 0.38916 16.8972 0.389082 15.9474 1.6451C15.5479 2.17354 14.8934 2.38627 14.2596 2.19361C12.7529 1.73572 10.9681 3.03244 10.938 4.60682C10.9254 5.26916 10.521 5.82588 9.89489 6.0426C8.40684 6.55768 7.72505 8.65588 8.62606 9.94728C9.00512 10.4906 9.0052 11.1787 8.62614 11.722C7.72505 13.0134 8.40676 15.1116 9.89481 15.6267C10.5208 15.8435 10.9254 16.4001 10.938 17.0624C10.9681 18.6368 12.7529 19.9336 14.2595 19.4757C14.8933 19.2831 15.5478 19.4956 15.9474 20.0241C16.8972 21.2802 19.1033 21.2802 20.0531 20.0242C20.4527 19.4957 21.1071 19.2831 21.7409 19.4757C23.2475 19.9336 25.0324 18.6369 25.0625 17.0625C25.075 16.4001 25.4794 15.8435 26.1055 15.6267ZM18.0001 5.15111C14.8611 5.15111 12.3165 7.6958 12.3165 10.8347C12.3165 13.9736 14.8611 16.5183 18.0001 16.5183C21.1391 16.5183 23.6837 13.9736 23.6837 10.8347C23.6837 7.69572 21.1391 5.15111 18.0001 5.15111ZM10.1304 38.7053C10.4355 34.6383 13.8586 31.4051 18.0002 31.4051C22.1418 31.4051 25.5648 34.6383 25.87 38.7053C25.8941 39.0266 25.6432 39.297 25.321 39.297H10.6794C10.3572 39.297 10.1063 39.0266 10.1304 38.7053ZM18.0001 22.4628C15.6445 22.4628 13.7348 24.3724 13.7348 26.7281C13.7348 29.0837 15.6444 30.9933 18.0001 30.9933C20.3557 30.9933 22.2654 29.0837 22.2654 26.7281C22.2654 24.3724 20.3558 22.4628 18.0001 22.4628ZM23.4311 31.9548C25.1335 33.2177 26.3897 35.0583 26.8961 37.1934H35.3586C35.6581 37.1934 35.8913 36.9421 35.8689 36.6434C35.5853 32.863 32.4033 29.8576 28.5536 29.8576C26.5656 29.8576 24.7557 30.6591 23.4311 31.9548ZM0.131374 36.6434C0.108952 36.9421 0.342155 37.1934 0.641765 37.1934H9.10434C9.61067 35.0584 10.8668 33.2177 12.5693 31.9549C11.2446 30.6591 9.43473 29.8576 7.44676 29.8576C3.59692 29.8576 0.414968 32.863 0.131374 36.6434ZM28.5536 21.5452C26.3639 21.5452 24.5888 23.3203 24.5888 25.5099C24.5888 27.6996 26.3639 29.4747 28.5536 29.4747C30.7432 29.4747 32.5183 27.6996 32.5183 25.5099C32.5183 23.3203 30.7432 21.5452 28.5536 21.5452Z" fill="black"/>
</svg>
