<svg width="18" height="12" viewBox="0 0 18 12" fill="none" xmlns="http://www.w3.org/2000/svg">
<path d="M1.54688 6.26103C1.48437 6.09264 1.48437 5.90741 1.54688 5.73903C2.15565 4.26292 3.18902 3.00081 4.51596 2.1127C5.8429 1.22459 7.40366 0.750488 9.00038 0.750488C10.5971 0.750488 12.1579 1.22459 13.4848 2.1127C14.8117 3.00081 15.8451 4.26292 16.4539 5.73903C16.5164 5.90741 16.5164 6.09264 16.4539 6.26103C15.8451 7.73713 14.8117 8.99925 13.4848 9.88735C12.1579 10.7755 10.5971 11.2496 9.00038 11.2496C7.40366 11.2496 5.8429 10.7755 4.51596 9.88735C3.18902 8.99925 2.15565 7.73713 1.54688 6.26103Z" stroke="#686868" stroke-width="1.2" stroke-linecap="round" stroke-linejoin="round"/>
<path d="M9 8.25C10.2426 8.25 11.25 7.24264 11.25 6C11.25 4.75736 10.2426 3.75 9 3.75C7.75736 3.75 6.75 4.75736 6.75 6C6.75 7.24264 7.75736 8.25 9 8.25Z" stroke="#686868" stroke-width="1.2" stroke-linecap="round" stroke-linejoin="round"/>
</svg>
