<svg width="14" height="14" viewBox="0 0 14 14" fill="none" xmlns="http://www.w3.org/2000/svg"><g clip-path="url(#clip0_479_428)"><path d="M12.8319 9.87V11.62C12.8325 11.7825 12.7993 11.9433 12.7342 12.0921C12.6691 12.241 12.5736 12.3746 12.4539 12.4844C12.3342 12.5942 12.1929 12.6779 12.039 12.7299C11.8851 12.782 11.722 12.8013 11.5602 12.7867C9.76519 12.5916 8.04095 11.9783 6.52604 10.9958C5.1166 10.1002 3.92165 8.90527 3.02604 7.49583C2.04019 5.97404 1.42668 4.24141 1.2352 2.43833C1.22063 2.27702 1.2398 2.11444 1.2915 1.96095C1.34319 1.80745 1.42629 1.6664 1.53548 1.54678C1.64468 1.42716 1.77759 1.33158 1.92575 1.26614C2.07391 1.2007 2.23407 1.16682 2.39604 1.16667H4.14604C4.42913 1.16388 4.70358 1.26413 4.91823 1.44873C5.13288 1.63333 5.27308 1.88968 5.3127 2.17C5.38657 2.73004 5.52355 3.27992 5.72104 3.80917C5.79952 4.01796 5.81651 4.24487 5.76998 4.46301C5.72346 4.68116 5.61537 4.8814 5.45854 5.04L4.7177 5.78083C5.54811 7.24124 6.7573 8.45043 8.2177 9.28083L8.95854 8.54C9.11714 8.38316 9.31738 8.27508 9.53552 8.22856C9.75367 8.18203 9.98058 8.19902 10.1894 8.2775C10.7186 8.47499 11.2685 8.61197 11.8285 8.68583C12.1119 8.72581 12.3707 8.86854 12.5557 9.08687C12.7407 9.30521 12.839 9.58392 12.8319 9.87Z" stroke="black" stroke-width="1.2" stroke-linecap="round" stroke-linejoin="round"></path><path d="M8.19531 1.16666C9.3843 1.29195 10.4949 1.8193 11.3435 2.6615C12.1921 3.50371 12.7277 4.61032 12.862 5.79833" stroke="black" stroke-width="1.2" stroke-linecap="round" stroke-linejoin="round"></path><path d="M8.19531 3.5C8.76903 3.61313 9.29549 3.8961 9.70637 4.31218C10.1172 4.72826 10.3936 5.25824 10.4995 5.83333" stroke="black" stroke-width="1.2" stroke-linecap="round" stroke-linejoin="round"></path></g><defs><clipPath id="clip0_479_428"><rect width="14" height="14" fill="white"></rect></clipPath></defs></svg>