<svg width="40" height="40" viewBox="0 0 40 40" fill="none" xmlns="http://www.w3.org/2000/svg">
<path d="M21.0194 22.1395C22.0173 22.716 23.094 23.1134 24.2205 23.3224H25.8047C26.1453 23.3224 26.4531 23.3752 26.7285 23.4691C30.0985 23.2433 33.1074 21.3741 34.795 18.4487C36.1427 16.1159 36.5008 13.3984 35.8034 10.7962C35.106 8.1943 33.4371 6.01977 31.1042 4.67297C26.2896 1.89383 20.1099 3.54961 17.3285 8.36422C16.299 10.1487 15.8471 12.1629 16.0117 14.2066C16.7987 14.6988 17.4535 15.3859 17.9162 16.2234C18.57 17.4073 18.7664 18.7559 18.4847 20.0598C19.2107 20.8869 20.0611 21.5868 21.0194 22.1395ZM22.571 15.7188H23.7261V16.2963C23.7261 17.0596 24.3471 17.6805 25.1103 17.6805H26.553C27.5715 17.6805 28.4 16.8519 28.4 15.8334C28.4 14.8137 27.5714 13.984 26.553 13.984C25.5681 13.984 22.571 13.984 22.571 10.9817C22.571 9.35484 23.8699 8.0268 25.4844 7.97945V5.68805H26.6395V7.97719H27.016C28.4161 7.97719 29.5552 9.11625 29.5552 10.5164V11.094H28.4V10.5164C28.4 9.7532 27.7792 9.13227 27.0159 9.13227H25.5733C24.5547 9.13227 23.726 9.96187 23.726 10.9816C23.726 12.3109 24.5186 12.8287 26.5529 12.8287C28.2084 12.8287 29.5551 14.1766 29.5551 15.8334C29.5551 17.4598 28.2549 18.7873 26.6394 18.8334V21.127H25.4842V18.8356H25.1102C23.71 18.8356 22.5709 17.6965 22.5709 16.2963V15.7188H22.571ZM39.4315 13.4063C39.4315 19.9988 34.7326 25.4939 28.3449 26.5813C28.3919 26.3741 28.4165 26.1616 28.4165 25.9495C28.4165 25.434 28.276 24.9163 28.0011 24.4781C31.2648 23.9087 34.1167 21.9363 35.7954 19.0263C37.2974 16.4265 37.6964 13.3975 36.9191 10.4972C36.1419 7.59742 34.2819 5.17375 31.6817 3.67273C26.3158 0.575157 19.4283 2.42055 16.3282 7.78664C15.29 9.58633 14.7786 11.5955 14.8263 13.6488C14.7548 13.6251 14.6831 13.6018 14.6103 13.5809L13.7405 13.3307C13.4339 13.242 13.1142 13.4194 13.0259 13.7257L12.7549 14.6661C12.7157 14.2482 12.6946 13.8279 12.6946 13.4063C12.6945 6.03555 18.6911 0.0390625 26.0619 0.0390625C33.4339 0.0390625 39.4315 6.03555 39.4315 13.4063ZM22.1945 27.4212V28.5764H25.8046C26.8109 28.5764 27.2613 29.3156 27.2613 30.0483C27.2613 30.7809 26.8109 31.5202 25.8046 31.5202H24.7945H22.1945V32.6753H24.7945C25.8008 32.6753 26.2512 33.4145 26.2512 34.1472C26.2512 34.5376 26.1185 34.9118 25.8871 35.1741C25.6267 35.4694 25.2591 35.6191 24.7946 35.6191H24.3503H22.1946V36.7742H24.3503C25.3567 36.7742 25.807 37.5134 25.807 38.2461C25.807 38.9787 25.3567 39.718 24.3503 39.718H11.5328C10.601 38.7569 9.43299 38.4687 8.40166 38.3799V27.3377C9.34494 27.1689 10.0582 26.8005 10.5705 26.2172C10.6267 26.1532 10.668 26.0777 10.6915 25.996L13.9759 14.6003L14.2906 14.6909C15.4099 15.0134 16.3385 15.756 16.9051 16.782C17.4717 17.8079 17.6061 18.9895 17.2835 20.1092L16.2384 23.7404C16.1882 23.9147 16.2228 24.1026 16.332 24.2475C16.441 24.3924 16.612 24.4777 16.7934 24.4777H25.8047C26.811 24.4777 27.2614 25.217 27.2614 25.9496C27.2614 26.6823 26.811 27.4215 25.8047 27.4215H22.1945V27.4212ZM0.568848 25.8524H7.24658V39.9609H0.568848V25.8524Z" fill="black"/>
</svg>
